<mxfile host="app.diagrams.net" agent="Mozilla/5.0 (X11; Linux x86_64; rv:128.0) Gecko/20100101 Firefox/128.0" version="27.0.9">
  <diagram name="Page-1" id="e7e014a7-5840-1c2e-5031-d8a46d1fe8dd">
    <mxGraphModel dx="6724" dy="5559" grid="1" gridSize="10" guides="1" tooltips="1" connect="1" arrows="1" fold="1" page="1" pageScale="1" pageWidth="1169" pageHeight="826" background="none" math="0" shadow="0">
      <root>
        <mxCell id="0" />
        <mxCell id="1" parent="0" />
        <mxCell id="EwHZnWKr4dCBu-Lg2rmB-28" value="" style="group" vertex="1" connectable="0" parent="1">
          <mxGeometry x="150" y="530" width="1540" height="572" as="geometry" />
        </mxCell>
        <mxCell id="2" value="OB OFFICER" style="swimlane;whiteSpace=wrap;fillColor=#232BFF;strokeColor=#00D4FF;" parent="EwHZnWKr4dCBu-Lg2rmB-28" vertex="1">
          <mxGeometry width="307.99999999999994" height="572" as="geometry" />
        </mxCell>
        <mxCell id="6" value="" style="edgeStyle=elbowEdgeStyle;elbow=horizontal;verticalAlign=bottom;endArrow=open;endSize=8;strokeColor=#FF0000;endFill=1;rounded=0" parent="2" edge="1">
          <mxGeometry x="109.99999999999999" y="40" as="geometry">
            <mxPoint x="125.89364504776265" y="142" as="targetPoint" />
            <mxPoint x="125.72496732026141" y="72" as="sourcePoint" />
          </mxGeometry>
        </mxCell>
        <mxCell id="7" value="record &#xa;reported&#xa; case" style="" parent="2" vertex="1">
          <mxGeometry x="80.52431372549019" y="140" width="120.99999999999999" height="50" as="geometry" />
        </mxCell>
        <mxCell id="2Hf1jUeBJOyug7HOCzo7-47" value="" style="ellipse;whiteSpace=wrap;html=1;aspect=fixed;strokeColor=#FF0000;align=center;verticalAlign=middle;fontFamily=Helvetica;fontSize=12;fontColor=default;fontStyle=1;fillColor=default;" parent="2" vertex="1">
          <mxGeometry x="108.89999999999999" y="40" width="31.792207792207794" height="31.792207792207794" as="geometry" />
        </mxCell>
        <mxCell id="4" value="SECRETARY DATA OFFICE" style="swimlane;whiteSpace=wrap;startSize=23;strokeColor=#00DDFF;fillColor=#1900FF;" parent="EwHZnWKr4dCBu-Lg2rmB-28" vertex="1">
          <mxGeometry x="615.9999999999999" width="307.99999999999994" height="570" as="geometry" />
        </mxCell>
        <mxCell id="2Hf1jUeBJOyug7HOCzo7-73" style="edgeStyle=orthogonalEdgeStyle;rounded=0;orthogonalLoop=1;jettySize=auto;html=1;entryX=0.5;entryY=0;entryDx=0;entryDy=0;fontFamily=Helvetica;fontSize=12;fontColor=default;fontStyle=1;strokeColor=#FF0000;" parent="4" source="2Hf1jUeBJOyug7HOCzo7-59" target="2Hf1jUeBJOyug7HOCzo7-63" edge="1">
          <mxGeometry relative="1" as="geometry" />
        </mxCell>
        <mxCell id="2Hf1jUeBJOyug7HOCzo7-59" value="" style="ellipse;whiteSpace=wrap;html=1;aspect=fixed;strokeColor=#FF0000;align=center;verticalAlign=middle;fontFamily=Helvetica;fontSize=12;fontColor=default;fontStyle=1;fillColor=default;" parent="4" vertex="1">
          <mxGeometry x="137.49999999999997" y="40" width="39.740259740259745" height="39.740259740259745" as="geometry" />
        </mxCell>
        <mxCell id="2Hf1jUeBJOyug7HOCzo7-72" style="edgeStyle=orthogonalEdgeStyle;rounded=0;orthogonalLoop=1;jettySize=auto;html=1;exitX=0.5;exitY=1;exitDx=0;exitDy=0;entryX=0.5;entryY=0;entryDx=0;entryDy=0;fontFamily=Helvetica;fontSize=12;fontColor=default;fontStyle=1;strokeColor=#FF0000;" parent="4" source="2Hf1jUeBJOyug7HOCzo7-63" target="2Hf1jUeBJOyug7HOCzo7-71" edge="1">
          <mxGeometry relative="1" as="geometry" />
        </mxCell>
        <mxCell id="2Hf1jUeBJOyug7HOCzo7-63" value="secretary&#39;s functions" style="swimlane;horizontal=0;whiteSpace=wrap;html=1;strokeColor=#1B00A3;align=center;verticalAlign=middle;fontFamily=Helvetica;fontSize=12;fontColor=default;fontStyle=1;fillColor=default;startSize=30;" parent="4" vertex="1">
          <mxGeometry x="43.99999999999999" y="120" width="230.99999999999997" height="100" as="geometry" />
        </mxCell>
        <mxCell id="2Hf1jUeBJOyug7HOCzo7-64" value="populate the nominal role" style="text;html=1;align=center;verticalAlign=middle;resizable=0;points=[];autosize=1;strokeColor=none;fillColor=none;fontFamily=Helvetica;fontSize=12;fontColor=default;fontStyle=1;" parent="2Hf1jUeBJOyug7HOCzo7-63" vertex="1">
          <mxGeometry x="33" y="10" width="160" height="30" as="geometry" />
        </mxCell>
        <mxCell id="2Hf1jUeBJOyug7HOCzo7-65" value="update the nominal " style="text;html=1;align=center;verticalAlign=middle;resizable=0;points=[];autosize=1;strokeColor=none;fillColor=none;fontFamily=Helvetica;fontSize=12;fontColor=default;fontStyle=1;rotation=0;" parent="2Hf1jUeBJOyug7HOCzo7-63" vertex="1">
          <mxGeometry x="33" y="40" width="130" height="30" as="geometry" />
        </mxCell>
        <mxCell id="2Hf1jUeBJOyug7HOCzo7-69" value="" style="endArrow=none;html=1;rounded=0;fontFamily=Helvetica;fontSize=12;fontColor=default;fontStyle=1;" parent="2Hf1jUeBJOyug7HOCzo7-63" edge="1">
          <mxGeometry width="50" height="50" relative="1" as="geometry">
            <mxPoint x="230.99999999999997" y="70" as="sourcePoint" />
            <mxPoint x="33" y="70" as="targetPoint" />
          </mxGeometry>
        </mxCell>
        <mxCell id="2Hf1jUeBJOyug7HOCzo7-67" value="" style="endArrow=none;html=1;rounded=0;fontFamily=Helvetica;fontSize=12;fontColor=default;fontStyle=1;" parent="2Hf1jUeBJOyug7HOCzo7-63" edge="1">
          <mxGeometry width="50" height="50" relative="1" as="geometry">
            <mxPoint x="230.99999999999997" y="40" as="sourcePoint" />
            <mxPoint x="33" y="40" as="targetPoint" />
          </mxGeometry>
        </mxCell>
        <mxCell id="2Hf1jUeBJOyug7HOCzo7-71" value="nominal role" style="rounded=0;whiteSpace=wrap;html=1;strokeColor=default;align=center;verticalAlign=middle;fontFamily=Helvetica;fontSize=12;fontColor=default;fontStyle=1;fillColor=default;" parent="4" vertex="1">
          <mxGeometry x="93.50000000000001" y="293" width="132" height="60" as="geometry" />
        </mxCell>
        <mxCell id="2Hf1jUeBJOyug7HOCzo7-41" value="INVESTIGATION OFFICER" style="swimlane;whiteSpace=wrap;startSize=23;strokeColor=#00DDFF;fillColor=#1900FF;" parent="EwHZnWKr4dCBu-Lg2rmB-28" vertex="1">
          <mxGeometry x="1231.9999999999998" width="307.99999999999994" height="570" as="geometry" />
        </mxCell>
        <mxCell id="2Hf1jUeBJOyug7HOCzo7-45" value="" style="ellipse;shape=endState;fillColor=#FFFFFF;strokeColor=#ff0000" parent="2Hf1jUeBJOyug7HOCzo7-41" vertex="1">
          <mxGeometry x="153.9971241830065" y="460" width="33" height="30" as="geometry" />
        </mxCell>
        <mxCell id="2Hf1jUeBJOyug7HOCzo7-109" style="edgeStyle=orthogonalEdgeStyle;rounded=0;orthogonalLoop=1;jettySize=auto;html=1;exitX=0.5;exitY=1;exitDx=0;exitDy=0;fontFamily=Helvetica;fontSize=12;fontColor=default;fontStyle=1;strokeColor=#FF0000;" parent="2Hf1jUeBJOyug7HOCzo7-41" source="2Hf1jUeBJOyug7HOCzo7-95" edge="1">
          <mxGeometry relative="1" as="geometry">
            <mxPoint x="187.00000000000003" y="160" as="targetPoint" />
          </mxGeometry>
        </mxCell>
        <mxCell id="2Hf1jUeBJOyug7HOCzo7-95" value="open case file" style="rounded=0;whiteSpace=wrap;html=1;strokeColor=default;align=center;verticalAlign=middle;fontFamily=Helvetica;fontSize=12;fontColor=default;fontStyle=1;fillColor=default;" parent="2Hf1jUeBJOyug7HOCzo7-41" vertex="1">
          <mxGeometry x="120.99999999999999" y="60" width="132" height="60" as="geometry" />
        </mxCell>
        <mxCell id="2Hf1jUeBJOyug7HOCzo7-97" value="&lt;div&gt;IO&lt;br&gt;&lt;/div&gt;&lt;div&gt;functionalities&lt;br&gt;&lt;/div&gt;" style="swimlane;horizontal=0;whiteSpace=wrap;html=1;strokeColor=#2200AB;align=center;verticalAlign=middle;fontFamily=Helvetica;fontSize=12;fontColor=default;fontStyle=1;fillColor=default;startSize=30;" parent="2Hf1jUeBJOyug7HOCzo7-41" vertex="1">
          <mxGeometry x="54.99999999999999" y="160" width="230.99999999999997" height="220" as="geometry" />
        </mxCell>
        <mxCell id="2Hf1jUeBJOyug7HOCzo7-98" value="share file for advice" style="text;html=1;align=center;verticalAlign=middle;resizable=0;points=[];autosize=1;strokeColor=none;fillColor=none;fontFamily=Helvetica;fontSize=12;fontColor=default;fontStyle=1;rotation=0;" parent="2Hf1jUeBJOyug7HOCzo7-97" vertex="1">
          <mxGeometry x="49.49999999999999" y="40" width="130" height="30" as="geometry" />
        </mxCell>
        <mxCell id="2Hf1jUeBJOyug7HOCzo7-99" value="" style="endArrow=none;html=1;rounded=0;fontFamily=Helvetica;fontSize=12;fontColor=default;fontStyle=1;" parent="2Hf1jUeBJOyug7HOCzo7-97" edge="1">
          <mxGeometry width="50" height="50" relative="1" as="geometry">
            <mxPoint x="230.99999999999997" y="70" as="sourcePoint" />
            <mxPoint x="33" y="70" as="targetPoint" />
          </mxGeometry>
        </mxCell>
        <mxCell id="2Hf1jUeBJOyug7HOCzo7-100" value="" style="endArrow=none;html=1;rounded=0;fontFamily=Helvetica;fontSize=12;fontColor=default;fontStyle=1;" parent="2Hf1jUeBJOyug7HOCzo7-97" edge="1">
          <mxGeometry width="50" height="50" relative="1" as="geometry">
            <mxPoint x="230.99999999999997" y="40" as="sourcePoint" />
            <mxPoint x="33" y="40" as="targetPoint" />
          </mxGeometry>
        </mxCell>
        <mxCell id="2Hf1jUeBJOyug7HOCzo7-101" value="manage the case file" style="text;html=1;align=center;verticalAlign=middle;resizable=0;points=[];autosize=1;strokeColor=none;fillColor=none;fontFamily=Helvetica;fontSize=12;fontColor=default;fontStyle=1;" parent="2Hf1jUeBJOyug7HOCzo7-97" vertex="1">
          <mxGeometry x="49.49999999999999" y="10" width="130" height="30" as="geometry" />
        </mxCell>
        <mxCell id="2Hf1jUeBJOyug7HOCzo7-103" value="" style="endArrow=none;html=1;rounded=0;fontFamily=Helvetica;fontSize=12;fontColor=default;fontStyle=1;" parent="2Hf1jUeBJOyug7HOCzo7-97" edge="1">
          <mxGeometry width="50" height="50" relative="1" as="geometry">
            <mxPoint x="230.99999999999997" y="110" as="sourcePoint" />
            <mxPoint x="33" y="110" as="targetPoint" />
          </mxGeometry>
        </mxCell>
        <mxCell id="2Hf1jUeBJOyug7HOCzo7-105" value="" style="endArrow=none;html=1;rounded=0;fontFamily=Helvetica;fontSize=12;fontColor=default;fontStyle=1;" parent="2Hf1jUeBJOyug7HOCzo7-97" edge="1">
          <mxGeometry width="50" height="50" relative="1" as="geometry">
            <mxPoint x="230.99999999999997" y="133" as="sourcePoint" />
            <mxPoint x="33" y="133" as="targetPoint" />
          </mxGeometry>
        </mxCell>
        <mxCell id="2Hf1jUeBJOyug7HOCzo7-106" value="re-open case file" style="text;html=1;align=center;verticalAlign=middle;resizable=0;points=[];autosize=1;strokeColor=none;fillColor=none;fontFamily=Helvetica;fontSize=12;fontColor=default;fontStyle=1;" parent="2Hf1jUeBJOyug7HOCzo7-97" vertex="1">
          <mxGeometry x="54.99999999999999" y="70" width="110" height="30" as="geometry" />
        </mxCell>
        <mxCell id="2Hf1jUeBJOyug7HOCzo7-107" value="" style="endArrow=none;html=1;rounded=0;fontFamily=Helvetica;fontSize=12;fontColor=default;fontStyle=1;" parent="2Hf1jUeBJOyug7HOCzo7-97" edge="1">
          <mxGeometry width="50" height="50" relative="1" as="geometry">
            <mxPoint x="230.99999999999997" y="163" as="sourcePoint" />
            <mxPoint x="33" y="163" as="targetPoint" />
          </mxGeometry>
        </mxCell>
        <mxCell id="2Hf1jUeBJOyug7HOCzo7-110" value="view assigned cases" style="text;html=1;align=center;verticalAlign=middle;resizable=0;points=[];autosize=1;strokeColor=none;fillColor=none;fontFamily=Helvetica;fontSize=12;fontColor=default;fontStyle=1;" parent="2Hf1jUeBJOyug7HOCzo7-97" vertex="1">
          <mxGeometry x="43.99999999999999" y="103" width="130" height="30" as="geometry" />
        </mxCell>
        <mxCell id="2Hf1jUeBJOyug7HOCzo7-112" value="reallocated the file" style="text;html=1;align=center;verticalAlign=middle;resizable=0;points=[];autosize=1;strokeColor=none;fillColor=none;fontFamily=Helvetica;fontSize=12;fontColor=default;fontStyle=1;" parent="2Hf1jUeBJOyug7HOCzo7-97" vertex="1">
          <mxGeometry x="49.49999999999999" y="160" width="120" height="30" as="geometry" />
        </mxCell>
        <mxCell id="2Hf1jUeBJOyug7HOCzo7-111" value="close case" style="text;html=1;align=center;verticalAlign=middle;resizable=0;points=[];autosize=1;strokeColor=none;fillColor=none;fontFamily=Helvetica;fontSize=12;fontColor=default;fontStyle=1;" parent="2Hf1jUeBJOyug7HOCzo7-97" vertex="1">
          <mxGeometry x="54.99999999999999" y="133" width="80" height="30" as="geometry" />
        </mxCell>
        <mxCell id="2Hf1jUeBJOyug7HOCzo7-113" value="" style="endArrow=none;html=1;rounded=0;fontFamily=Helvetica;fontSize=12;fontColor=default;fontStyle=1;" parent="2Hf1jUeBJOyug7HOCzo7-97" edge="1">
          <mxGeometry width="50" height="50" relative="1" as="geometry">
            <mxPoint x="230.99999999999997" y="190" as="sourcePoint" />
            <mxPoint x="33" y="190" as="targetPoint" />
          </mxGeometry>
        </mxCell>
        <mxCell id="2Hf1jUeBJOyug7HOCzo7-114" value="retrieve crime history files" style="text;html=1;align=center;verticalAlign=middle;resizable=0;points=[];autosize=1;strokeColor=none;fillColor=none;fontFamily=Helvetica;fontSize=12;fontColor=default;fontStyle=1;" parent="2Hf1jUeBJOyug7HOCzo7-97" vertex="1">
          <mxGeometry x="33" y="190" width="160" height="30" as="geometry" />
        </mxCell>
        <mxCell id="EwHZnWKr4dCBu-Lg2rmB-359" style="edgeStyle=orthogonalEdgeStyle;rounded=0;orthogonalLoop=1;jettySize=auto;html=1;entryX=0.5;entryY=0;entryDx=0;entryDy=0;fontFamily=Helvetica;fontSize=12;fontColor=default;fontStyle=1;strokeColor=#FF0000;" edge="1" parent="2Hf1jUeBJOyug7HOCzo7-41" source="2Hf1jUeBJOyug7HOCzo7-97" target="2Hf1jUeBJOyug7HOCzo7-45">
          <mxGeometry relative="1" as="geometry" />
        </mxCell>
        <mxCell id="3" value="STATION HEAD" style="swimlane;whiteSpace=wrap;strokeColor=#00DDFF;fillColor=#1900FF;" parent="EwHZnWKr4dCBu-Lg2rmB-28" vertex="1">
          <mxGeometry x="923.9999999999999" width="307.99999999999994" height="570" as="geometry" />
        </mxCell>
        <mxCell id="2Hf1jUeBJOyug7HOCzo7-88" style="edgeStyle=orthogonalEdgeStyle;rounded=0;orthogonalLoop=1;jettySize=auto;html=1;exitX=0.5;exitY=1;exitDx=0;exitDy=0;fontFamily=Helvetica;fontSize=12;fontColor=default;fontStyle=1;" parent="3" source="2Hf1jUeBJOyug7HOCzo7-75" edge="1">
          <mxGeometry relative="1" as="geometry">
            <mxPoint x="165.1833333333334" y="160" as="targetPoint" />
          </mxGeometry>
        </mxCell>
        <mxCell id="2Hf1jUeBJOyug7HOCzo7-75" value="approve recommended officers" style="rounded=0;whiteSpace=wrap;html=1;strokeColor=default;align=center;verticalAlign=middle;fontFamily=Helvetica;fontSize=12;fontColor=default;fontStyle=1;fillColor=default;" parent="3" vertex="1">
          <mxGeometry x="98.99999999999999" y="60" width="132" height="60" as="geometry" />
        </mxCell>
        <mxCell id="2Hf1jUeBJOyug7HOCzo7-76" value="&lt;div&gt;head&#39;s&lt;/div&gt;&lt;div&gt;functionalities&lt;br&gt;&lt;/div&gt;" style="swimlane;horizontal=0;whiteSpace=wrap;html=1;strokeColor=#2200AB;align=center;verticalAlign=middle;fontFamily=Helvetica;fontSize=12;fontColor=default;fontStyle=1;fillColor=default;startSize=30;" parent="3" vertex="1">
          <mxGeometry x="54.99999999999999" y="160" width="230.99999999999997" height="190" as="geometry" />
        </mxCell>
        <mxCell id="2Hf1jUeBJOyug7HOCzo7-78" value="evaluate reports" style="text;html=1;align=center;verticalAlign=middle;resizable=0;points=[];autosize=1;strokeColor=none;fillColor=none;fontFamily=Helvetica;fontSize=12;fontColor=default;fontStyle=1;rotation=0;" parent="2Hf1jUeBJOyug7HOCzo7-76" vertex="1">
          <mxGeometry x="33" y="40" width="110" height="30" as="geometry" />
        </mxCell>
        <mxCell id="2Hf1jUeBJOyug7HOCzo7-79" value="" style="endArrow=none;html=1;rounded=0;fontFamily=Helvetica;fontSize=12;fontColor=default;fontStyle=1;" parent="2Hf1jUeBJOyug7HOCzo7-76" edge="1">
          <mxGeometry width="50" height="50" relative="1" as="geometry">
            <mxPoint x="230.99999999999997" y="70" as="sourcePoint" />
            <mxPoint x="33" y="70" as="targetPoint" />
          </mxGeometry>
        </mxCell>
        <mxCell id="2Hf1jUeBJOyug7HOCzo7-80" value="" style="endArrow=none;html=1;rounded=0;fontFamily=Helvetica;fontSize=12;fontColor=default;fontStyle=1;" parent="2Hf1jUeBJOyug7HOCzo7-76" edge="1">
          <mxGeometry width="50" height="50" relative="1" as="geometry">
            <mxPoint x="230.99999999999997" y="40" as="sourcePoint" />
            <mxPoint x="33" y="40" as="targetPoint" />
          </mxGeometry>
        </mxCell>
        <mxCell id="2Hf1jUeBJOyug7HOCzo7-82" value="monitor the case progress" style="text;html=1;align=center;verticalAlign=middle;resizable=0;points=[];autosize=1;strokeColor=none;fillColor=none;fontFamily=Helvetica;fontSize=12;fontColor=default;fontStyle=1;" parent="2Hf1jUeBJOyug7HOCzo7-76" vertex="1">
          <mxGeometry x="33" y="10" width="160" height="30" as="geometry" />
        </mxCell>
        <mxCell id="2Hf1jUeBJOyug7HOCzo7-84" value="forward case" style="text;html=1;align=center;verticalAlign=middle;resizable=0;points=[];autosize=1;strokeColor=none;fillColor=none;fontFamily=Helvetica;fontSize=12;fontColor=default;fontStyle=1;rotation=0;" parent="2Hf1jUeBJOyug7HOCzo7-76" vertex="1">
          <mxGeometry x="33" y="70" width="90" height="30" as="geometry" />
        </mxCell>
        <mxCell id="2Hf1jUeBJOyug7HOCzo7-85" value="" style="endArrow=none;html=1;rounded=0;fontFamily=Helvetica;fontSize=12;fontColor=default;fontStyle=1;" parent="2Hf1jUeBJOyug7HOCzo7-76" edge="1">
          <mxGeometry width="50" height="50" relative="1" as="geometry">
            <mxPoint x="230.99999999999997" y="110" as="sourcePoint" />
            <mxPoint x="33" y="110" as="targetPoint" />
          </mxGeometry>
        </mxCell>
        <mxCell id="2Hf1jUeBJOyug7HOCzo7-89" value="authorize file access" style="text;html=1;align=center;verticalAlign=middle;resizable=0;points=[];autosize=1;strokeColor=none;fillColor=none;fontFamily=Helvetica;fontSize=12;fontColor=default;fontStyle=1;" parent="2Hf1jUeBJOyug7HOCzo7-76" vertex="1">
          <mxGeometry x="33" y="103" width="130" height="30" as="geometry" />
        </mxCell>
        <mxCell id="2Hf1jUeBJOyug7HOCzo7-90" value="" style="endArrow=none;html=1;rounded=0;fontFamily=Helvetica;fontSize=12;fontColor=default;fontStyle=1;" parent="2Hf1jUeBJOyug7HOCzo7-76" edge="1">
          <mxGeometry width="50" height="50" relative="1" as="geometry">
            <mxPoint x="230.99999999999997" y="133" as="sourcePoint" />
            <mxPoint x="33" y="133" as="targetPoint" />
          </mxGeometry>
        </mxCell>
        <mxCell id="2Hf1jUeBJOyug7HOCzo7-91" value="re-open case file" style="text;html=1;align=center;verticalAlign=middle;resizable=0;points=[];autosize=1;strokeColor=none;fillColor=none;fontFamily=Helvetica;fontSize=12;fontColor=default;fontStyle=1;" parent="2Hf1jUeBJOyug7HOCzo7-76" vertex="1">
          <mxGeometry x="33" y="133" width="110" height="30" as="geometry" />
        </mxCell>
        <mxCell id="2Hf1jUeBJOyug7HOCzo7-92" value="" style="endArrow=none;html=1;rounded=0;fontFamily=Helvetica;fontSize=12;fontColor=default;fontStyle=1;" parent="2Hf1jUeBJOyug7HOCzo7-76" edge="1">
          <mxGeometry width="50" height="50" relative="1" as="geometry">
            <mxPoint x="230.99999999999997" y="163" as="sourcePoint" />
            <mxPoint x="33" y="163" as="targetPoint" />
          </mxGeometry>
        </mxCell>
        <mxCell id="2Hf1jUeBJOyug7HOCzo7-93" value="approve case reallocation" style="text;html=1;align=center;verticalAlign=middle;resizable=0;points=[];autosize=1;strokeColor=none;fillColor=none;fontFamily=Helvetica;fontSize=12;fontColor=default;fontStyle=1;" parent="2Hf1jUeBJOyug7HOCzo7-76" vertex="1">
          <mxGeometry x="33" y="160" width="160" height="30" as="geometry" />
        </mxCell>
        <mxCell id="2Hf1jUeBJOyug7HOCzo7-96" style="edgeStyle=orthogonalEdgeStyle;rounded=0;orthogonalLoop=1;jettySize=auto;html=1;exitX=1;exitY=0.5;exitDx=0;exitDy=0;entryX=0;entryY=0.5;entryDx=0;entryDy=0;fontFamily=Helvetica;fontSize=12;fontColor=default;fontStyle=1;strokeColor=#FF0000;" parent="EwHZnWKr4dCBu-Lg2rmB-28" source="2Hf1jUeBJOyug7HOCzo7-75" target="2Hf1jUeBJOyug7HOCzo7-95" edge="1">
          <mxGeometry relative="1" as="geometry">
            <Array as="points">
              <mxPoint x="1155.5032679738565" y="100" />
            </Array>
          </mxGeometry>
        </mxCell>
        <mxCell id="2Hf1jUeBJOyug7HOCzo7-49" value="ML MODEL" style="swimlane;whiteSpace=wrap;fillColor=#232BFF;strokeColor=#00D4FF;" parent="EwHZnWKr4dCBu-Lg2rmB-28" vertex="1">
          <mxGeometry x="307.99999999999994" width="307.99999999999994" height="570" as="geometry" />
        </mxCell>
        <mxCell id="8" value="case categorization" style="" parent="2Hf1jUeBJOyug7HOCzo7-49" vertex="1">
          <mxGeometry x="71.49999999999999" y="140" width="120.99999999999999" height="50" as="geometry" />
        </mxCell>
        <mxCell id="2Hf1jUeBJOyug7HOCzo7-48" value="&lt;div&gt;is &lt;br&gt;&lt;/div&gt;&lt;div&gt;DCI handled&lt;br&gt;&lt;/div&gt;" style="rhombus;whiteSpace=wrap;html=1;strokeColor=default;align=center;verticalAlign=middle;fontFamily=Helvetica;fontSize=12;fontColor=default;fontStyle=1;fillColor=default;" parent="2Hf1jUeBJOyug7HOCzo7-49" vertex="1">
          <mxGeometry x="71.49999999999999" y="272" width="120.99999999999999" height="100" as="geometry" />
        </mxCell>
        <mxCell id="11" value="" style="endArrow=open;strokeColor=#FF0000;endFill=1;rounded=0;entryX=0.5;entryY=0;entryDx=0;entryDy=0;" parent="2Hf1jUeBJOyug7HOCzo7-49" source="8" target="2Hf1jUeBJOyug7HOCzo7-48" edge="1">
          <mxGeometry relative="1" as="geometry">
            <mxPoint x="-181.49999999999997" y="325" as="targetPoint" />
            <Array as="points" />
          </mxGeometry>
        </mxCell>
        <mxCell id="2Hf1jUeBJOyug7HOCzo7-58" value="&lt;div&gt;suggest&lt;br&gt;&lt;/div&gt;&lt;div&gt;allocate cases&lt;/div&gt;" style="rounded=0;whiteSpace=wrap;html=1;strokeColor=default;align=center;verticalAlign=middle;fontFamily=Helvetica;fontSize=12;fontColor=default;fontStyle=1;fillColor=default;" parent="2Hf1jUeBJOyug7HOCzo7-49" vertex="1">
          <mxGeometry x="65.9963333333334" y="412" width="132" height="60" as="geometry" />
        </mxCell>
        <mxCell id="2Hf1jUeBJOyug7HOCzo7-57" style="edgeStyle=orthogonalEdgeStyle;rounded=0;orthogonalLoop=1;jettySize=auto;html=1;exitX=0.5;exitY=1;exitDx=0;exitDy=0;fontFamily=Helvetica;fontSize=12;fontColor=default;fontStyle=1;strokeColor=#FF0000;" parent="2Hf1jUeBJOyug7HOCzo7-49" source="2Hf1jUeBJOyug7HOCzo7-48" target="2Hf1jUeBJOyug7HOCzo7-58" edge="1">
          <mxGeometry relative="1" as="geometry">
            <mxPoint x="126.6833333333334" y="434.5" as="targetPoint" />
          </mxGeometry>
        </mxCell>
        <mxCell id="9" value="" style="endArrow=open;strokeColor=#FF0000;endFill=1;rounded=0" parent="EwHZnWKr4dCBu-Lg2rmB-28" source="7" target="8" edge="1">
          <mxGeometry relative="1" as="geometry" />
        </mxCell>
        <mxCell id="2Hf1jUeBJOyug7HOCzo7-74" style="edgeStyle=orthogonalEdgeStyle;rounded=0;orthogonalLoop=1;jettySize=auto;html=1;entryX=1;entryY=0.5;entryDx=0;entryDy=0;fontFamily=Helvetica;fontSize=12;fontColor=default;fontStyle=1;strokeColor=#FF0000;" parent="EwHZnWKr4dCBu-Lg2rmB-28" source="2Hf1jUeBJOyug7HOCzo7-71" target="2Hf1jUeBJOyug7HOCzo7-58" edge="1">
          <mxGeometry relative="1" as="geometry">
            <Array as="points">
              <mxPoint x="571.9999999999999" y="323" />
              <mxPoint x="571.9999999999999" y="442" />
            </Array>
          </mxGeometry>
        </mxCell>
        <mxCell id="2Hf1jUeBJOyug7HOCzo7-81" style="edgeStyle=orthogonalEdgeStyle;rounded=0;orthogonalLoop=1;jettySize=auto;html=1;entryX=0.432;entryY=0.056;entryDx=0;entryDy=0;fontFamily=Helvetica;fontSize=12;fontColor=default;fontStyle=1;entryPerimeter=0;exitX=0.5;exitY=1;exitDx=0;exitDy=0;strokeColor=#FF0000;" parent="EwHZnWKr4dCBu-Lg2rmB-28" source="2Hf1jUeBJOyug7HOCzo7-58" target="2Hf1jUeBJOyug7HOCzo7-75" edge="1">
          <mxGeometry relative="1" as="geometry">
            <mxPoint x="434.49999999999994" y="480" as="sourcePoint" />
            <Array as="points">
              <mxPoint x="434.49999999999994" y="510" />
              <mxPoint x="945.9999999999999" y="510" />
              <mxPoint x="945.9999999999999" y="40" />
              <mxPoint x="1080.1999999999998" y="40" />
            </Array>
          </mxGeometry>
        </mxCell>
        <mxCell id="EwHZnWKr4dCBu-Lg2rmB-30" value="&lt;div&gt;&lt;font style=&quot;font-size: 36px;&quot;&gt;&lt;b&gt;police station&lt;/b&gt;&lt;/font&gt;&lt;/div&gt;&lt;br&gt;&lt;font style=&quot;font-size: 36px;&quot;&gt;(&lt;/font&gt;&lt;font style=&quot;font-size: 36px;&quot;&gt;&lt;b&gt;ocs&lt;/b&gt;&lt;/font&gt;&lt;font style=&quot;font-size: 36px;&quot;&gt;)&lt;/font&gt;" style="rounded=1;whiteSpace=wrap;html=1;" vertex="1" parent="1">
          <mxGeometry x="-490" y="766" width="386" height="140" as="geometry" />
        </mxCell>
        <mxCell id="EwHZnWKr4dCBu-Lg2rmB-94" value="" style="group" vertex="1" connectable="0" parent="1">
          <mxGeometry x="170" y="-330" width="1510" height="572" as="geometry" />
        </mxCell>
        <mxCell id="EwHZnWKr4dCBu-Lg2rmB-99" value="SECRETARY DATA OFFICE" style="swimlane;whiteSpace=wrap;startSize=23;strokeColor=#00DDFF;fillColor=#1900FF;" vertex="1" parent="EwHZnWKr4dCBu-Lg2rmB-94">
          <mxGeometry x="377.5" y="2" width="302" height="488" as="geometry" />
        </mxCell>
        <mxCell id="EwHZnWKr4dCBu-Lg2rmB-100" style="edgeStyle=orthogonalEdgeStyle;rounded=0;orthogonalLoop=1;jettySize=auto;html=1;entryX=0.5;entryY=0;entryDx=0;entryDy=0;fontFamily=Helvetica;fontSize=12;fontColor=default;fontStyle=1;strokeColor=#FF0000;" edge="1" parent="EwHZnWKr4dCBu-Lg2rmB-99" source="EwHZnWKr4dCBu-Lg2rmB-101" target="EwHZnWKr4dCBu-Lg2rmB-103">
          <mxGeometry relative="1" as="geometry" />
        </mxCell>
        <mxCell id="EwHZnWKr4dCBu-Lg2rmB-101" value="" style="ellipse;whiteSpace=wrap;html=1;aspect=fixed;strokeColor=#FF0000;align=center;verticalAlign=middle;fontFamily=Helvetica;fontSize=12;fontColor=default;fontStyle=1;fillColor=default;" vertex="1" parent="EwHZnWKr4dCBu-Lg2rmB-99">
          <mxGeometry x="134.82142857142856" y="40" width="40" height="40" as="geometry" />
        </mxCell>
        <mxCell id="EwHZnWKr4dCBu-Lg2rmB-102" style="edgeStyle=orthogonalEdgeStyle;rounded=0;orthogonalLoop=1;jettySize=auto;html=1;exitX=0.5;exitY=1;exitDx=0;exitDy=0;entryX=0.5;entryY=0;entryDx=0;entryDy=0;fontFamily=Helvetica;fontSize=12;fontColor=default;fontStyle=1;strokeColor=#FF0000;" edge="1" parent="EwHZnWKr4dCBu-Lg2rmB-99" source="EwHZnWKr4dCBu-Lg2rmB-103" target="EwHZnWKr4dCBu-Lg2rmB-108">
          <mxGeometry relative="1" as="geometry" />
        </mxCell>
        <mxCell id="EwHZnWKr4dCBu-Lg2rmB-103" value="secretary&#39;s functions" style="swimlane;horizontal=0;whiteSpace=wrap;html=1;strokeColor=#1B00A3;align=center;verticalAlign=middle;fontFamily=Helvetica;fontSize=12;fontColor=default;fontStyle=1;fillColor=default;startSize=30;" vertex="1" parent="EwHZnWKr4dCBu-Lg2rmB-99">
          <mxGeometry x="43.14285714285714" y="120" width="226.5" height="100" as="geometry" />
        </mxCell>
        <mxCell id="EwHZnWKr4dCBu-Lg2rmB-104" value="populate the nominal role" style="text;html=1;align=center;verticalAlign=middle;resizable=0;points=[];autosize=1;strokeColor=none;fillColor=none;fontFamily=Helvetica;fontSize=12;fontColor=default;fontStyle=1;" vertex="1" parent="EwHZnWKr4dCBu-Lg2rmB-103">
          <mxGeometry x="32.357142857142854" y="10" width="160" height="30" as="geometry" />
        </mxCell>
        <mxCell id="EwHZnWKr4dCBu-Lg2rmB-105" value="update the nominal " style="text;html=1;align=center;verticalAlign=middle;resizable=0;points=[];autosize=1;strokeColor=none;fillColor=none;fontFamily=Helvetica;fontSize=12;fontColor=default;fontStyle=1;rotation=0;" vertex="1" parent="EwHZnWKr4dCBu-Lg2rmB-103">
          <mxGeometry x="32.357142857142854" y="40" width="130" height="30" as="geometry" />
        </mxCell>
        <mxCell id="EwHZnWKr4dCBu-Lg2rmB-106" value="" style="endArrow=none;html=1;rounded=0;fontFamily=Helvetica;fontSize=12;fontColor=default;fontStyle=1;" edge="1" parent="EwHZnWKr4dCBu-Lg2rmB-103">
          <mxGeometry width="50" height="50" relative="1" as="geometry">
            <mxPoint x="226.5" y="70" as="sourcePoint" />
            <mxPoint x="32.357142857142854" y="70" as="targetPoint" />
          </mxGeometry>
        </mxCell>
        <mxCell id="EwHZnWKr4dCBu-Lg2rmB-107" value="" style="endArrow=none;html=1;rounded=0;fontFamily=Helvetica;fontSize=12;fontColor=default;fontStyle=1;" edge="1" parent="EwHZnWKr4dCBu-Lg2rmB-103">
          <mxGeometry width="50" height="50" relative="1" as="geometry">
            <mxPoint x="226.5" y="40" as="sourcePoint" />
            <mxPoint x="32.357142857142854" y="40" as="targetPoint" />
          </mxGeometry>
        </mxCell>
        <mxCell id="EwHZnWKr4dCBu-Lg2rmB-108" value="nominal role" style="rounded=0;whiteSpace=wrap;html=1;strokeColor=default;align=center;verticalAlign=middle;fontFamily=Helvetica;fontSize=12;fontColor=default;fontStyle=1;fillColor=default;" vertex="1" parent="EwHZnWKr4dCBu-Lg2rmB-99">
          <mxGeometry x="91.67857142857143" y="293" width="129.42857142857142" height="60" as="geometry" />
        </mxCell>
        <mxCell id="EwHZnWKr4dCBu-Lg2rmB-109" value="INVESTIGATION OFFICER" style="swimlane;whiteSpace=wrap;startSize=23;strokeColor=#00DDFF;fillColor=#1900FF;" vertex="1" parent="EwHZnWKr4dCBu-Lg2rmB-94">
          <mxGeometry x="1208" width="302" height="490" as="geometry" />
        </mxCell>
        <mxCell id="EwHZnWKr4dCBu-Lg2rmB-110" value="" style="ellipse;shape=endState;fillColor=#FFFFFF;strokeColor=#ff0000" vertex="1" parent="EwHZnWKr4dCBu-Lg2rmB-109">
          <mxGeometry x="134.82142857142856" y="450" width="32.357142857142854" height="30" as="geometry" />
        </mxCell>
        <mxCell id="EwHZnWKr4dCBu-Lg2rmB-111" value="" style="endArrow=open;strokeColor=#FF0000;endFill=1;rounded=0;exitX=0.381;exitY=1.039;exitDx=0;exitDy=0;exitPerimeter=0;" edge="1" parent="EwHZnWKr4dCBu-Lg2rmB-109" source="EwHZnWKr4dCBu-Lg2rmB-127" target="EwHZnWKr4dCBu-Lg2rmB-110">
          <mxGeometry relative="1" as="geometry">
            <mxPoint x="156.39285714285714" y="420" as="sourcePoint" />
          </mxGeometry>
        </mxCell>
        <mxCell id="EwHZnWKr4dCBu-Lg2rmB-112" style="edgeStyle=orthogonalEdgeStyle;rounded=0;orthogonalLoop=1;jettySize=auto;html=1;exitX=0.5;exitY=1;exitDx=0;exitDy=0;fontFamily=Helvetica;fontSize=12;fontColor=default;fontStyle=1;strokeColor=#FF0000;" edge="1" parent="EwHZnWKr4dCBu-Lg2rmB-109" source="EwHZnWKr4dCBu-Lg2rmB-113">
          <mxGeometry relative="1" as="geometry">
            <mxPoint x="183.35714285714286" y="160" as="targetPoint" />
          </mxGeometry>
        </mxCell>
        <mxCell id="EwHZnWKr4dCBu-Lg2rmB-113" value="open case file" style="rounded=0;whiteSpace=wrap;html=1;strokeColor=default;align=center;verticalAlign=middle;fontFamily=Helvetica;fontSize=12;fontColor=default;fontStyle=1;fillColor=default;" vertex="1" parent="EwHZnWKr4dCBu-Lg2rmB-109">
          <mxGeometry x="118.64285714285714" y="60" width="129.42857142857142" height="60" as="geometry" />
        </mxCell>
        <mxCell id="EwHZnWKr4dCBu-Lg2rmB-114" value="&lt;div&gt;IO&lt;br&gt;&lt;/div&gt;&lt;div&gt;functionalities&lt;br&gt;&lt;/div&gt;" style="swimlane;horizontal=0;whiteSpace=wrap;html=1;strokeColor=#2200AB;align=center;verticalAlign=middle;fontFamily=Helvetica;fontSize=12;fontColor=default;fontStyle=1;fillColor=default;startSize=30;" vertex="1" parent="EwHZnWKr4dCBu-Lg2rmB-109">
          <mxGeometry x="53.92857142857142" y="160" width="226.5" height="220" as="geometry" />
        </mxCell>
        <mxCell id="EwHZnWKr4dCBu-Lg2rmB-115" value="share file for advice" style="text;html=1;align=center;verticalAlign=middle;resizable=0;points=[];autosize=1;strokeColor=none;fillColor=none;fontFamily=Helvetica;fontSize=12;fontColor=default;fontStyle=1;rotation=0;" vertex="1" parent="EwHZnWKr4dCBu-Lg2rmB-114">
          <mxGeometry x="48.535714285714285" y="40" width="130" height="30" as="geometry" />
        </mxCell>
        <mxCell id="EwHZnWKr4dCBu-Lg2rmB-116" value="" style="endArrow=none;html=1;rounded=0;fontFamily=Helvetica;fontSize=12;fontColor=default;fontStyle=1;" edge="1" parent="EwHZnWKr4dCBu-Lg2rmB-114">
          <mxGeometry width="50" height="50" relative="1" as="geometry">
            <mxPoint x="226.5" y="70" as="sourcePoint" />
            <mxPoint x="32.357142857142854" y="70" as="targetPoint" />
          </mxGeometry>
        </mxCell>
        <mxCell id="EwHZnWKr4dCBu-Lg2rmB-117" value="" style="endArrow=none;html=1;rounded=0;fontFamily=Helvetica;fontSize=12;fontColor=default;fontStyle=1;" edge="1" parent="EwHZnWKr4dCBu-Lg2rmB-114">
          <mxGeometry width="50" height="50" relative="1" as="geometry">
            <mxPoint x="226.5" y="40" as="sourcePoint" />
            <mxPoint x="32.357142857142854" y="40" as="targetPoint" />
          </mxGeometry>
        </mxCell>
        <mxCell id="EwHZnWKr4dCBu-Lg2rmB-118" value="manage the case file" style="text;html=1;align=center;verticalAlign=middle;resizable=0;points=[];autosize=1;strokeColor=none;fillColor=none;fontFamily=Helvetica;fontSize=12;fontColor=default;fontStyle=1;" vertex="1" parent="EwHZnWKr4dCBu-Lg2rmB-114">
          <mxGeometry x="48.535714285714285" y="10" width="130" height="30" as="geometry" />
        </mxCell>
        <mxCell id="EwHZnWKr4dCBu-Lg2rmB-119" value="" style="endArrow=none;html=1;rounded=0;fontFamily=Helvetica;fontSize=12;fontColor=default;fontStyle=1;" edge="1" parent="EwHZnWKr4dCBu-Lg2rmB-114">
          <mxGeometry width="50" height="50" relative="1" as="geometry">
            <mxPoint x="226.5" y="110" as="sourcePoint" />
            <mxPoint x="32.357142857142854" y="110" as="targetPoint" />
          </mxGeometry>
        </mxCell>
        <mxCell id="EwHZnWKr4dCBu-Lg2rmB-120" value="" style="endArrow=none;html=1;rounded=0;fontFamily=Helvetica;fontSize=12;fontColor=default;fontStyle=1;" edge="1" parent="EwHZnWKr4dCBu-Lg2rmB-114">
          <mxGeometry width="50" height="50" relative="1" as="geometry">
            <mxPoint x="226.5" y="133" as="sourcePoint" />
            <mxPoint x="32.357142857142854" y="133" as="targetPoint" />
          </mxGeometry>
        </mxCell>
        <mxCell id="EwHZnWKr4dCBu-Lg2rmB-121" value="re-open case file" style="text;html=1;align=center;verticalAlign=middle;resizable=0;points=[];autosize=1;strokeColor=none;fillColor=none;fontFamily=Helvetica;fontSize=12;fontColor=default;fontStyle=1;" vertex="1" parent="EwHZnWKr4dCBu-Lg2rmB-114">
          <mxGeometry x="53.92857142857142" y="70" width="110" height="30" as="geometry" />
        </mxCell>
        <mxCell id="EwHZnWKr4dCBu-Lg2rmB-122" value="" style="endArrow=none;html=1;rounded=0;fontFamily=Helvetica;fontSize=12;fontColor=default;fontStyle=1;" edge="1" parent="EwHZnWKr4dCBu-Lg2rmB-114">
          <mxGeometry width="50" height="50" relative="1" as="geometry">
            <mxPoint x="226.5" y="163" as="sourcePoint" />
            <mxPoint x="32.357142857142854" y="163" as="targetPoint" />
          </mxGeometry>
        </mxCell>
        <mxCell id="EwHZnWKr4dCBu-Lg2rmB-123" value="view assigned cases" style="text;html=1;align=center;verticalAlign=middle;resizable=0;points=[];autosize=1;strokeColor=none;fillColor=none;fontFamily=Helvetica;fontSize=12;fontColor=default;fontStyle=1;" vertex="1" parent="EwHZnWKr4dCBu-Lg2rmB-114">
          <mxGeometry x="43.14285714285714" y="103" width="130" height="30" as="geometry" />
        </mxCell>
        <mxCell id="EwHZnWKr4dCBu-Lg2rmB-124" value="reallocated the file" style="text;html=1;align=center;verticalAlign=middle;resizable=0;points=[];autosize=1;strokeColor=none;fillColor=none;fontFamily=Helvetica;fontSize=12;fontColor=default;fontStyle=1;" vertex="1" parent="EwHZnWKr4dCBu-Lg2rmB-114">
          <mxGeometry x="48.535714285714285" y="160" width="120" height="30" as="geometry" />
        </mxCell>
        <mxCell id="EwHZnWKr4dCBu-Lg2rmB-125" value="close case" style="text;html=1;align=center;verticalAlign=middle;resizable=0;points=[];autosize=1;strokeColor=none;fillColor=none;fontFamily=Helvetica;fontSize=12;fontColor=default;fontStyle=1;" vertex="1" parent="EwHZnWKr4dCBu-Lg2rmB-114">
          <mxGeometry x="53.92857142857142" y="133" width="80" height="30" as="geometry" />
        </mxCell>
        <mxCell id="EwHZnWKr4dCBu-Lg2rmB-126" value="" style="endArrow=none;html=1;rounded=0;fontFamily=Helvetica;fontSize=12;fontColor=default;fontStyle=1;" edge="1" parent="EwHZnWKr4dCBu-Lg2rmB-114">
          <mxGeometry width="50" height="50" relative="1" as="geometry">
            <mxPoint x="226.5" y="190" as="sourcePoint" />
            <mxPoint x="32.357142857142854" y="190" as="targetPoint" />
          </mxGeometry>
        </mxCell>
        <mxCell id="EwHZnWKr4dCBu-Lg2rmB-127" value="retrieve crime history files" style="text;html=1;align=center;verticalAlign=middle;resizable=0;points=[];autosize=1;strokeColor=none;fillColor=none;fontFamily=Helvetica;fontSize=12;fontColor=default;fontStyle=1;" vertex="1" parent="EwHZnWKr4dCBu-Lg2rmB-114">
          <mxGeometry x="32.357142857142854" y="190" width="160" height="30" as="geometry" />
        </mxCell>
        <mxCell id="EwHZnWKr4dCBu-Lg2rmB-134" value="" style="endArrow=open;strokeColor=#FF0000;endFill=1;rounded=0" edge="1" parent="EwHZnWKr4dCBu-Lg2rmB-94" target="EwHZnWKr4dCBu-Lg2rmB-129">
          <mxGeometry relative="1" as="geometry">
            <mxPoint x="183.35714285714235" y="165" as="sourcePoint" />
          </mxGeometry>
        </mxCell>
        <mxCell id="EwHZnWKr4dCBu-Lg2rmB-135" value="STATION HEAD" style="swimlane;whiteSpace=wrap;strokeColor=#00DDFF;fillColor=#1900FF;" vertex="1" parent="EwHZnWKr4dCBu-Lg2rmB-94">
          <mxGeometry x="722.6428571428571" y="1" width="302" height="489" as="geometry" />
        </mxCell>
        <mxCell id="EwHZnWKr4dCBu-Lg2rmB-136" style="edgeStyle=orthogonalEdgeStyle;rounded=0;orthogonalLoop=1;jettySize=auto;html=1;exitX=0.5;exitY=1;exitDx=0;exitDy=0;fontFamily=Helvetica;fontSize=12;fontColor=default;fontStyle=1;" edge="1" parent="EwHZnWKr4dCBu-Lg2rmB-135" source="EwHZnWKr4dCBu-Lg2rmB-137">
          <mxGeometry relative="1" as="geometry">
            <mxPoint x="161.96547619047627" y="160" as="targetPoint" />
          </mxGeometry>
        </mxCell>
        <mxCell id="EwHZnWKr4dCBu-Lg2rmB-137" value="approve recommended officers" style="rounded=0;whiteSpace=wrap;html=1;strokeColor=default;align=center;verticalAlign=middle;fontFamily=Helvetica;fontSize=12;fontColor=default;fontStyle=1;fillColor=default;" vertex="1" parent="EwHZnWKr4dCBu-Lg2rmB-135">
          <mxGeometry x="97.07142857142857" y="60" width="129.42857142857142" height="60" as="geometry" />
        </mxCell>
        <mxCell id="EwHZnWKr4dCBu-Lg2rmB-138" value="&lt;div&gt;head&#39;s&lt;/div&gt;&lt;div&gt;functionalities&lt;br&gt;&lt;/div&gt;" style="swimlane;horizontal=0;whiteSpace=wrap;html=1;strokeColor=#2200AB;align=center;verticalAlign=middle;fontFamily=Helvetica;fontSize=12;fontColor=default;fontStyle=1;fillColor=default;startSize=30;" vertex="1" parent="EwHZnWKr4dCBu-Lg2rmB-135">
          <mxGeometry x="53.92857142857142" y="160" width="226.5" height="190" as="geometry" />
        </mxCell>
        <mxCell id="EwHZnWKr4dCBu-Lg2rmB-139" value="evaluate reports" style="text;html=1;align=center;verticalAlign=middle;resizable=0;points=[];autosize=1;strokeColor=none;fillColor=none;fontFamily=Helvetica;fontSize=12;fontColor=default;fontStyle=1;rotation=0;" vertex="1" parent="EwHZnWKr4dCBu-Lg2rmB-138">
          <mxGeometry x="32.357142857142854" y="40" width="110" height="30" as="geometry" />
        </mxCell>
        <mxCell id="EwHZnWKr4dCBu-Lg2rmB-140" value="" style="endArrow=none;html=1;rounded=0;fontFamily=Helvetica;fontSize=12;fontColor=default;fontStyle=1;" edge="1" parent="EwHZnWKr4dCBu-Lg2rmB-138">
          <mxGeometry width="50" height="50" relative="1" as="geometry">
            <mxPoint x="226.5" y="70" as="sourcePoint" />
            <mxPoint x="32.357142857142854" y="70" as="targetPoint" />
          </mxGeometry>
        </mxCell>
        <mxCell id="EwHZnWKr4dCBu-Lg2rmB-141" value="" style="endArrow=none;html=1;rounded=0;fontFamily=Helvetica;fontSize=12;fontColor=default;fontStyle=1;" edge="1" parent="EwHZnWKr4dCBu-Lg2rmB-138">
          <mxGeometry width="50" height="50" relative="1" as="geometry">
            <mxPoint x="226.5" y="40" as="sourcePoint" />
            <mxPoint x="32.357142857142854" y="40" as="targetPoint" />
          </mxGeometry>
        </mxCell>
        <mxCell id="EwHZnWKr4dCBu-Lg2rmB-142" value="monitor the case progress" style="text;html=1;align=center;verticalAlign=middle;resizable=0;points=[];autosize=1;strokeColor=none;fillColor=none;fontFamily=Helvetica;fontSize=12;fontColor=default;fontStyle=1;" vertex="1" parent="EwHZnWKr4dCBu-Lg2rmB-138">
          <mxGeometry x="32.357142857142854" y="10" width="160" height="30" as="geometry" />
        </mxCell>
        <mxCell id="EwHZnWKr4dCBu-Lg2rmB-143" value="forward case" style="text;html=1;align=center;verticalAlign=middle;resizable=0;points=[];autosize=1;strokeColor=none;fillColor=none;fontFamily=Helvetica;fontSize=12;fontColor=default;fontStyle=1;rotation=0;" vertex="1" parent="EwHZnWKr4dCBu-Lg2rmB-138">
          <mxGeometry x="32.357142857142854" y="70" width="90" height="30" as="geometry" />
        </mxCell>
        <mxCell id="EwHZnWKr4dCBu-Lg2rmB-144" value="" style="endArrow=none;html=1;rounded=0;fontFamily=Helvetica;fontSize=12;fontColor=default;fontStyle=1;" edge="1" parent="EwHZnWKr4dCBu-Lg2rmB-138">
          <mxGeometry width="50" height="50" relative="1" as="geometry">
            <mxPoint x="226.5" y="110" as="sourcePoint" />
            <mxPoint x="32.357142857142854" y="110" as="targetPoint" />
          </mxGeometry>
        </mxCell>
        <mxCell id="EwHZnWKr4dCBu-Lg2rmB-145" value="authorize file access" style="text;html=1;align=center;verticalAlign=middle;resizable=0;points=[];autosize=1;strokeColor=none;fillColor=none;fontFamily=Helvetica;fontSize=12;fontColor=default;fontStyle=1;" vertex="1" parent="EwHZnWKr4dCBu-Lg2rmB-138">
          <mxGeometry x="32.357142857142854" y="103" width="130" height="30" as="geometry" />
        </mxCell>
        <mxCell id="EwHZnWKr4dCBu-Lg2rmB-146" value="" style="endArrow=none;html=1;rounded=0;fontFamily=Helvetica;fontSize=12;fontColor=default;fontStyle=1;" edge="1" parent="EwHZnWKr4dCBu-Lg2rmB-138">
          <mxGeometry width="50" height="50" relative="1" as="geometry">
            <mxPoint x="226.5" y="133" as="sourcePoint" />
            <mxPoint x="32.357142857142854" y="133" as="targetPoint" />
          </mxGeometry>
        </mxCell>
        <mxCell id="EwHZnWKr4dCBu-Lg2rmB-147" value="re-open case file" style="text;html=1;align=center;verticalAlign=middle;resizable=0;points=[];autosize=1;strokeColor=none;fillColor=none;fontFamily=Helvetica;fontSize=12;fontColor=default;fontStyle=1;" vertex="1" parent="EwHZnWKr4dCBu-Lg2rmB-138">
          <mxGeometry x="32.357142857142854" y="133" width="110" height="30" as="geometry" />
        </mxCell>
        <mxCell id="EwHZnWKr4dCBu-Lg2rmB-148" value="" style="endArrow=none;html=1;rounded=0;fontFamily=Helvetica;fontSize=12;fontColor=default;fontStyle=1;" edge="1" parent="EwHZnWKr4dCBu-Lg2rmB-138">
          <mxGeometry width="50" height="50" relative="1" as="geometry">
            <mxPoint x="226.5" y="163" as="sourcePoint" />
            <mxPoint x="32.357142857142854" y="163" as="targetPoint" />
          </mxGeometry>
        </mxCell>
        <mxCell id="EwHZnWKr4dCBu-Lg2rmB-149" value="approve case reallocation" style="text;html=1;align=center;verticalAlign=middle;resizable=0;points=[];autosize=1;strokeColor=none;fillColor=none;fontFamily=Helvetica;fontSize=12;fontColor=default;fontStyle=1;" vertex="1" parent="EwHZnWKr4dCBu-Lg2rmB-138">
          <mxGeometry x="32.357142857142854" y="160" width="160" height="30" as="geometry" />
        </mxCell>
        <mxCell id="EwHZnWKr4dCBu-Lg2rmB-152" style="edgeStyle=orthogonalEdgeStyle;rounded=0;orthogonalLoop=1;jettySize=auto;html=1;exitX=1;exitY=0.5;exitDx=0;exitDy=0;entryX=0;entryY=0.5;entryDx=0;entryDy=0;fontFamily=Helvetica;fontSize=12;fontColor=default;fontStyle=1;strokeColor=#FF0000;" edge="1" parent="EwHZnWKr4dCBu-Lg2rmB-94" source="EwHZnWKr4dCBu-Lg2rmB-137" target="EwHZnWKr4dCBu-Lg2rmB-113">
          <mxGeometry relative="1" as="geometry" />
        </mxCell>
        <mxCell id="EwHZnWKr4dCBu-Lg2rmB-343" value="ML MODEL" style="swimlane;whiteSpace=wrap;fillColor=#232BFF;strokeColor=#00D4FF;" vertex="1" parent="EwHZnWKr4dCBu-Lg2rmB-94">
          <mxGeometry x="15" width="302" height="489" as="geometry" />
        </mxCell>
        <mxCell id="EwHZnWKr4dCBu-Lg2rmB-347" value="&lt;div&gt;suggest&lt;br&gt;&lt;/div&gt;&lt;div&gt;allocate cases&lt;/div&gt;" style="rounded=0;whiteSpace=wrap;html=1;strokeColor=default;align=center;verticalAlign=middle;fontFamily=Helvetica;fontSize=12;fontColor=default;fontStyle=1;fillColor=default;" vertex="1" parent="EwHZnWKr4dCBu-Lg2rmB-343">
          <mxGeometry x="94.07069047619055" y="201" width="129.42857142857142" height="60" as="geometry" />
        </mxCell>
        <mxCell id="EwHZnWKr4dCBu-Lg2rmB-374" style="edgeStyle=orthogonalEdgeStyle;rounded=0;orthogonalLoop=1;jettySize=auto;html=1;exitX=1;exitY=0.5;exitDx=0;exitDy=0;entryX=0;entryY=0.25;entryDx=0;entryDy=0;fontFamily=Helvetica;fontSize=12;fontColor=default;fontStyle=1;" edge="1" parent="EwHZnWKr4dCBu-Lg2rmB-94" source="EwHZnWKr4dCBu-Lg2rmB-347" target="EwHZnWKr4dCBu-Lg2rmB-137">
          <mxGeometry relative="1" as="geometry">
            <Array as="points">
              <mxPoint x="290" y="231" />
              <mxPoint x="290" y="390" />
              <mxPoint x="710" y="390" />
              <mxPoint x="710" y="76" />
            </Array>
          </mxGeometry>
        </mxCell>
        <mxCell id="EwHZnWKr4dCBu-Lg2rmB-377" style="edgeStyle=orthogonalEdgeStyle;rounded=0;orthogonalLoop=1;jettySize=auto;html=1;exitX=0;exitY=0.5;exitDx=0;exitDy=0;entryX=1;entryY=0.25;entryDx=0;entryDy=0;fontFamily=Helvetica;fontSize=12;fontColor=default;fontStyle=1;" edge="1" parent="EwHZnWKr4dCBu-Lg2rmB-94" source="EwHZnWKr4dCBu-Lg2rmB-108" target="EwHZnWKr4dCBu-Lg2rmB-347">
          <mxGeometry relative="1" as="geometry" />
        </mxCell>
        <mxCell id="EwHZnWKr4dCBu-Lg2rmB-158" value="" style="group" vertex="1" connectable="0" parent="1">
          <mxGeometry x="200" y="-3160" width="1428" height="712" as="geometry" />
        </mxCell>
        <mxCell id="EwHZnWKr4dCBu-Lg2rmB-163" value="SECRETARY DATA OFFICE" style="swimlane;whiteSpace=wrap;startSize=23;strokeColor=#00DDFF;fillColor=#1900FF;" vertex="1" parent="EwHZnWKr4dCBu-Lg2rmB-158">
          <mxGeometry x="377.29" y="2.49" width="278" height="587.51" as="geometry" />
        </mxCell>
        <mxCell id="EwHZnWKr4dCBu-Lg2rmB-164" style="edgeStyle=orthogonalEdgeStyle;rounded=0;orthogonalLoop=1;jettySize=auto;html=1;entryX=0.5;entryY=0;entryDx=0;entryDy=0;fontFamily=Helvetica;fontSize=12;fontColor=default;fontStyle=1;strokeColor=#FF0000;" edge="1" parent="EwHZnWKr4dCBu-Lg2rmB-163" source="EwHZnWKr4dCBu-Lg2rmB-165" target="EwHZnWKr4dCBu-Lg2rmB-167">
          <mxGeometry relative="1" as="geometry" />
        </mxCell>
        <mxCell id="EwHZnWKr4dCBu-Lg2rmB-165" value="" style="ellipse;whiteSpace=wrap;html=1;aspect=fixed;strokeColor=#FF0000;align=center;verticalAlign=middle;fontFamily=Helvetica;fontSize=12;fontColor=default;fontStyle=1;fillColor=default;" vertex="1" parent="EwHZnWKr4dCBu-Lg2rmB-163">
          <mxGeometry x="124.10714285714286" y="49.79020979020979" width="39.714285714285715" height="39.714285714285715" as="geometry" />
        </mxCell>
        <mxCell id="EwHZnWKr4dCBu-Lg2rmB-166" style="edgeStyle=orthogonalEdgeStyle;rounded=0;orthogonalLoop=1;jettySize=auto;html=1;exitX=0.5;exitY=1;exitDx=0;exitDy=0;entryX=0.5;entryY=0;entryDx=0;entryDy=0;fontFamily=Helvetica;fontSize=12;fontColor=default;fontStyle=1;strokeColor=#FF0000;" edge="1" parent="EwHZnWKr4dCBu-Lg2rmB-163" source="EwHZnWKr4dCBu-Lg2rmB-167" target="EwHZnWKr4dCBu-Lg2rmB-172">
          <mxGeometry relative="1" as="geometry" />
        </mxCell>
        <mxCell id="EwHZnWKr4dCBu-Lg2rmB-167" value="secretary&#39;s functions" style="swimlane;horizontal=0;whiteSpace=wrap;html=1;strokeColor=#1B00A3;align=center;verticalAlign=middle;fontFamily=Helvetica;fontSize=12;fontColor=default;fontStyle=1;fillColor=default;startSize=30;" vertex="1" parent="EwHZnWKr4dCBu-Lg2rmB-163">
          <mxGeometry x="39.714285714285715" y="149.3706293706294" width="208.5" height="124.47552447552448" as="geometry" />
        </mxCell>
        <mxCell id="EwHZnWKr4dCBu-Lg2rmB-168" value="populate the nominal role" style="text;html=1;align=center;verticalAlign=middle;resizable=0;points=[];autosize=1;strokeColor=none;fillColor=none;fontFamily=Helvetica;fontSize=12;fontColor=default;fontStyle=1;" vertex="1" parent="EwHZnWKr4dCBu-Lg2rmB-167">
          <mxGeometry x="29.785714285714285" y="12.447552447552448" width="160" height="30" as="geometry" />
        </mxCell>
        <mxCell id="EwHZnWKr4dCBu-Lg2rmB-169" value="update the nominal " style="text;html=1;align=center;verticalAlign=middle;resizable=0;points=[];autosize=1;strokeColor=none;fillColor=none;fontFamily=Helvetica;fontSize=12;fontColor=default;fontStyle=1;rotation=0;" vertex="1" parent="EwHZnWKr4dCBu-Lg2rmB-167">
          <mxGeometry x="29.785714285714285" y="49.79020979020979" width="130" height="30" as="geometry" />
        </mxCell>
        <mxCell id="EwHZnWKr4dCBu-Lg2rmB-170" value="" style="endArrow=none;html=1;rounded=0;fontFamily=Helvetica;fontSize=12;fontColor=default;fontStyle=1;" edge="1" parent="EwHZnWKr4dCBu-Lg2rmB-167">
          <mxGeometry width="50" height="50" relative="1" as="geometry">
            <mxPoint x="208.5" y="87.13286713286713" as="sourcePoint" />
            <mxPoint x="29.785714285714285" y="87.13286713286713" as="targetPoint" />
          </mxGeometry>
        </mxCell>
        <mxCell id="EwHZnWKr4dCBu-Lg2rmB-171" value="" style="endArrow=none;html=1;rounded=0;fontFamily=Helvetica;fontSize=12;fontColor=default;fontStyle=1;" edge="1" parent="EwHZnWKr4dCBu-Lg2rmB-167">
          <mxGeometry width="50" height="50" relative="1" as="geometry">
            <mxPoint x="208.5" y="49.79020979020979" as="sourcePoint" />
            <mxPoint x="29.785714285714285" y="49.79020979020979" as="targetPoint" />
          </mxGeometry>
        </mxCell>
        <mxCell id="EwHZnWKr4dCBu-Lg2rmB-172" value="nominal role" style="rounded=0;whiteSpace=wrap;html=1;strokeColor=default;align=center;verticalAlign=middle;fontFamily=Helvetica;fontSize=12;fontColor=default;fontStyle=1;fillColor=default;" vertex="1" parent="EwHZnWKr4dCBu-Lg2rmB-163">
          <mxGeometry x="84.39285714285714" y="364.7132867132867" width="119.14285714285714" height="74.6853146853147" as="geometry" />
        </mxCell>
        <mxCell id="EwHZnWKr4dCBu-Lg2rmB-173" value="INVESTIGATION OFFICER" style="swimlane;whiteSpace=wrap;startSize=23;strokeColor=#00DDFF;fillColor=#1900FF;" vertex="1" parent="EwHZnWKr4dCBu-Lg2rmB-158">
          <mxGeometry x="1160" width="278" height="628" as="geometry" />
        </mxCell>
        <mxCell id="EwHZnWKr4dCBu-Lg2rmB-174" value="" style="ellipse;shape=endState;fillColor=#FFFFFF;strokeColor=#ff0000" vertex="1" parent="EwHZnWKr4dCBu-Lg2rmB-173">
          <mxGeometry x="124.10714285714286" y="560.1398601398602" width="29.785714285714285" height="37.34265734265735" as="geometry" />
        </mxCell>
        <mxCell id="EwHZnWKr4dCBu-Lg2rmB-175" value="" style="endArrow=open;strokeColor=#FF0000;endFill=1;rounded=0;exitX=0.381;exitY=1.039;exitDx=0;exitDy=0;exitPerimeter=0;" edge="1" parent="EwHZnWKr4dCBu-Lg2rmB-173" source="EwHZnWKr4dCBu-Lg2rmB-191" target="EwHZnWKr4dCBu-Lg2rmB-174">
          <mxGeometry relative="1" as="geometry">
            <mxPoint x="143.96428571428572" y="522.7972027972028" as="sourcePoint" />
          </mxGeometry>
        </mxCell>
        <mxCell id="EwHZnWKr4dCBu-Lg2rmB-176" style="edgeStyle=orthogonalEdgeStyle;rounded=0;orthogonalLoop=1;jettySize=auto;html=1;exitX=0.5;exitY=1;exitDx=0;exitDy=0;fontFamily=Helvetica;fontSize=12;fontColor=default;fontStyle=1;strokeColor=#FF0000;" edge="1" parent="EwHZnWKr4dCBu-Lg2rmB-173" source="EwHZnWKr4dCBu-Lg2rmB-177">
          <mxGeometry relative="1" as="geometry">
            <mxPoint x="168.78571428571428" y="199.16083916083917" as="targetPoint" />
          </mxGeometry>
        </mxCell>
        <mxCell id="EwHZnWKr4dCBu-Lg2rmB-177" value="open case file" style="rounded=0;whiteSpace=wrap;html=1;strokeColor=default;align=center;verticalAlign=middle;fontFamily=Helvetica;fontSize=12;fontColor=default;fontStyle=1;fillColor=default;" vertex="1" parent="EwHZnWKr4dCBu-Lg2rmB-173">
          <mxGeometry x="109.21428571428572" y="74.6853146853147" width="119.14285714285714" height="74.6853146853147" as="geometry" />
        </mxCell>
        <mxCell id="EwHZnWKr4dCBu-Lg2rmB-178" value="&lt;div&gt;IO&lt;br&gt;&lt;/div&gt;&lt;div&gt;functionalities&lt;br&gt;&lt;/div&gt;" style="swimlane;horizontal=0;whiteSpace=wrap;html=1;strokeColor=#2200AB;align=center;verticalAlign=middle;fontFamily=Helvetica;fontSize=12;fontColor=default;fontStyle=1;fillColor=default;startSize=30;" vertex="1" parent="EwHZnWKr4dCBu-Lg2rmB-173">
          <mxGeometry x="49.642857142857146" y="199.16083916083917" width="208.5" height="273.84615384615387" as="geometry" />
        </mxCell>
        <mxCell id="EwHZnWKr4dCBu-Lg2rmB-179" value="share file for advice" style="text;html=1;align=center;verticalAlign=middle;resizable=0;points=[];autosize=1;strokeColor=none;fillColor=none;fontFamily=Helvetica;fontSize=12;fontColor=default;fontStyle=1;rotation=0;" vertex="1" parent="EwHZnWKr4dCBu-Lg2rmB-178">
          <mxGeometry x="44.67857142857143" y="49.79020979020979" width="130" height="30" as="geometry" />
        </mxCell>
        <mxCell id="EwHZnWKr4dCBu-Lg2rmB-180" value="" style="endArrow=none;html=1;rounded=0;fontFamily=Helvetica;fontSize=12;fontColor=default;fontStyle=1;" edge="1" parent="EwHZnWKr4dCBu-Lg2rmB-178">
          <mxGeometry width="50" height="50" relative="1" as="geometry">
            <mxPoint x="208.5" y="87.13286713286713" as="sourcePoint" />
            <mxPoint x="29.785714285714285" y="87.13286713286713" as="targetPoint" />
          </mxGeometry>
        </mxCell>
        <mxCell id="EwHZnWKr4dCBu-Lg2rmB-181" value="" style="endArrow=none;html=1;rounded=0;fontFamily=Helvetica;fontSize=12;fontColor=default;fontStyle=1;" edge="1" parent="EwHZnWKr4dCBu-Lg2rmB-178">
          <mxGeometry width="50" height="50" relative="1" as="geometry">
            <mxPoint x="208.5" y="49.79020979020979" as="sourcePoint" />
            <mxPoint x="29.785714285714285" y="49.79020979020979" as="targetPoint" />
          </mxGeometry>
        </mxCell>
        <mxCell id="EwHZnWKr4dCBu-Lg2rmB-182" value="manage the case file" style="text;html=1;align=center;verticalAlign=middle;resizable=0;points=[];autosize=1;strokeColor=none;fillColor=none;fontFamily=Helvetica;fontSize=12;fontColor=default;fontStyle=1;" vertex="1" parent="EwHZnWKr4dCBu-Lg2rmB-178">
          <mxGeometry x="44.67857142857143" y="12.447552447552448" width="130" height="30" as="geometry" />
        </mxCell>
        <mxCell id="EwHZnWKr4dCBu-Lg2rmB-183" value="" style="endArrow=none;html=1;rounded=0;fontFamily=Helvetica;fontSize=12;fontColor=default;fontStyle=1;" edge="1" parent="EwHZnWKr4dCBu-Lg2rmB-178">
          <mxGeometry width="50" height="50" relative="1" as="geometry">
            <mxPoint x="208.5" y="136.92307692307693" as="sourcePoint" />
            <mxPoint x="29.785714285714285" y="136.92307692307693" as="targetPoint" />
          </mxGeometry>
        </mxCell>
        <mxCell id="EwHZnWKr4dCBu-Lg2rmB-184" value="" style="endArrow=none;html=1;rounded=0;fontFamily=Helvetica;fontSize=12;fontColor=default;fontStyle=1;" edge="1" parent="EwHZnWKr4dCBu-Lg2rmB-178">
          <mxGeometry width="50" height="50" relative="1" as="geometry">
            <mxPoint x="208.5" y="165.55244755244755" as="sourcePoint" />
            <mxPoint x="29.785714285714285" y="165.55244755244755" as="targetPoint" />
          </mxGeometry>
        </mxCell>
        <mxCell id="EwHZnWKr4dCBu-Lg2rmB-185" value="re-open case file" style="text;html=1;align=center;verticalAlign=middle;resizable=0;points=[];autosize=1;strokeColor=none;fillColor=none;fontFamily=Helvetica;fontSize=12;fontColor=default;fontStyle=1;" vertex="1" parent="EwHZnWKr4dCBu-Lg2rmB-178">
          <mxGeometry x="49.642857142857146" y="87.13286713286713" width="110" height="30" as="geometry" />
        </mxCell>
        <mxCell id="EwHZnWKr4dCBu-Lg2rmB-186" value="" style="endArrow=none;html=1;rounded=0;fontFamily=Helvetica;fontSize=12;fontColor=default;fontStyle=1;" edge="1" parent="EwHZnWKr4dCBu-Lg2rmB-178">
          <mxGeometry width="50" height="50" relative="1" as="geometry">
            <mxPoint x="208.5" y="202.8951048951049" as="sourcePoint" />
            <mxPoint x="29.785714285714285" y="202.8951048951049" as="targetPoint" />
          </mxGeometry>
        </mxCell>
        <mxCell id="EwHZnWKr4dCBu-Lg2rmB-187" value="view assigned cases" style="text;html=1;align=center;verticalAlign=middle;resizable=0;points=[];autosize=1;strokeColor=none;fillColor=none;fontFamily=Helvetica;fontSize=12;fontColor=default;fontStyle=1;" vertex="1" parent="EwHZnWKr4dCBu-Lg2rmB-178">
          <mxGeometry x="39.714285714285715" y="128.2097902097902" width="130" height="30" as="geometry" />
        </mxCell>
        <mxCell id="EwHZnWKr4dCBu-Lg2rmB-188" value="reallocated the file" style="text;html=1;align=center;verticalAlign=middle;resizable=0;points=[];autosize=1;strokeColor=none;fillColor=none;fontFamily=Helvetica;fontSize=12;fontColor=default;fontStyle=1;" vertex="1" parent="EwHZnWKr4dCBu-Lg2rmB-178">
          <mxGeometry x="44.67857142857143" y="199.16083916083917" width="120" height="30" as="geometry" />
        </mxCell>
        <mxCell id="EwHZnWKr4dCBu-Lg2rmB-189" value="close case" style="text;html=1;align=center;verticalAlign=middle;resizable=0;points=[];autosize=1;strokeColor=none;fillColor=none;fontFamily=Helvetica;fontSize=12;fontColor=default;fontStyle=1;" vertex="1" parent="EwHZnWKr4dCBu-Lg2rmB-178">
          <mxGeometry x="49.642857142857146" y="165.55244755244755" width="80" height="30" as="geometry" />
        </mxCell>
        <mxCell id="EwHZnWKr4dCBu-Lg2rmB-190" value="" style="endArrow=none;html=1;rounded=0;fontFamily=Helvetica;fontSize=12;fontColor=default;fontStyle=1;" edge="1" parent="EwHZnWKr4dCBu-Lg2rmB-178">
          <mxGeometry width="50" height="50" relative="1" as="geometry">
            <mxPoint x="208.5" y="236.5034965034965" as="sourcePoint" />
            <mxPoint x="29.785714285714285" y="236.5034965034965" as="targetPoint" />
          </mxGeometry>
        </mxCell>
        <mxCell id="EwHZnWKr4dCBu-Lg2rmB-191" value="retrieve crime history files" style="text;html=1;align=center;verticalAlign=middle;resizable=0;points=[];autosize=1;strokeColor=none;fillColor=none;fontFamily=Helvetica;fontSize=12;fontColor=default;fontStyle=1;" vertex="1" parent="EwHZnWKr4dCBu-Lg2rmB-178">
          <mxGeometry x="29.785714285714285" y="236.5034965034965" width="160" height="30" as="geometry" />
        </mxCell>
        <mxCell id="EwHZnWKr4dCBu-Lg2rmB-192" value="ML MODEL" style="swimlane;whiteSpace=wrap;fillColor=#232BFF;strokeColor=#00D4FF;" vertex="1" parent="EwHZnWKr4dCBu-Lg2rmB-158">
          <mxGeometry x="29.79" y="2.49" width="278" height="597.51" as="geometry" />
        </mxCell>
        <mxCell id="EwHZnWKr4dCBu-Lg2rmB-196" value="&lt;div&gt;suggest&lt;br&gt;&lt;/div&gt;&lt;div&gt;allocate cases&lt;/div&gt;" style="rounded=0;whiteSpace=wrap;html=1;strokeColor=default;align=center;verticalAlign=middle;fontFamily=Helvetica;fontSize=12;fontColor=default;fontStyle=1;fillColor=default;" vertex="1" parent="EwHZnWKr4dCBu-Lg2rmB-192">
          <mxGeometry x="71.0681190476191" y="191.81916083916087" width="119.14285714285714" height="74.6853146853147" as="geometry" />
        </mxCell>
        <mxCell id="EwHZnWKr4dCBu-Lg2rmB-199" value="STATION HEAD" style="swimlane;whiteSpace=wrap;strokeColor=#00DDFF;fillColor=#1900FF;" vertex="1" parent="EwHZnWKr4dCBu-Lg2rmB-158">
          <mxGeometry x="744.64" width="278" height="600" as="geometry" />
        </mxCell>
        <mxCell id="EwHZnWKr4dCBu-Lg2rmB-200" style="edgeStyle=orthogonalEdgeStyle;rounded=0;orthogonalLoop=1;jettySize=auto;html=1;exitX=0.5;exitY=1;exitDx=0;exitDy=0;fontFamily=Helvetica;fontSize=12;fontColor=default;fontStyle=1;" edge="1" parent="EwHZnWKr4dCBu-Lg2rmB-199" source="EwHZnWKr4dCBu-Lg2rmB-201">
          <mxGeometry relative="1" as="geometry">
            <mxPoint x="149.0940476190477" y="199.16083916083917" as="targetPoint" />
          </mxGeometry>
        </mxCell>
        <mxCell id="EwHZnWKr4dCBu-Lg2rmB-201" value="approve recommended officers" style="rounded=0;whiteSpace=wrap;html=1;strokeColor=default;align=center;verticalAlign=middle;fontFamily=Helvetica;fontSize=12;fontColor=default;fontStyle=1;fillColor=default;" vertex="1" parent="EwHZnWKr4dCBu-Lg2rmB-199">
          <mxGeometry x="89.35714285714286" y="74.6853146853147" width="119.14285714285714" height="74.6853146853147" as="geometry" />
        </mxCell>
        <mxCell id="EwHZnWKr4dCBu-Lg2rmB-202" value="&lt;div&gt;head&#39;s&lt;/div&gt;&lt;div&gt;functionalities&lt;br&gt;&lt;/div&gt;" style="swimlane;horizontal=0;whiteSpace=wrap;html=1;strokeColor=#2200AB;align=center;verticalAlign=middle;fontFamily=Helvetica;fontSize=12;fontColor=default;fontStyle=1;fillColor=default;startSize=30;" vertex="1" parent="EwHZnWKr4dCBu-Lg2rmB-199">
          <mxGeometry x="49.642857142857146" y="199.16083916083917" width="208.5" height="236.5034965034965" as="geometry" />
        </mxCell>
        <mxCell id="EwHZnWKr4dCBu-Lg2rmB-203" value="evaluate reports" style="text;html=1;align=center;verticalAlign=middle;resizable=0;points=[];autosize=1;strokeColor=none;fillColor=none;fontFamily=Helvetica;fontSize=12;fontColor=default;fontStyle=1;rotation=0;" vertex="1" parent="EwHZnWKr4dCBu-Lg2rmB-202">
          <mxGeometry x="29.785714285714285" y="49.79020979020979" width="110" height="30" as="geometry" />
        </mxCell>
        <mxCell id="EwHZnWKr4dCBu-Lg2rmB-204" value="" style="endArrow=none;html=1;rounded=0;fontFamily=Helvetica;fontSize=12;fontColor=default;fontStyle=1;" edge="1" parent="EwHZnWKr4dCBu-Lg2rmB-202">
          <mxGeometry width="50" height="50" relative="1" as="geometry">
            <mxPoint x="208.5" y="87.13286713286713" as="sourcePoint" />
            <mxPoint x="29.785714285714285" y="87.13286713286713" as="targetPoint" />
          </mxGeometry>
        </mxCell>
        <mxCell id="EwHZnWKr4dCBu-Lg2rmB-205" value="" style="endArrow=none;html=1;rounded=0;fontFamily=Helvetica;fontSize=12;fontColor=default;fontStyle=1;" edge="1" parent="EwHZnWKr4dCBu-Lg2rmB-202">
          <mxGeometry width="50" height="50" relative="1" as="geometry">
            <mxPoint x="208.5" y="49.79020979020979" as="sourcePoint" />
            <mxPoint x="29.785714285714285" y="49.79020979020979" as="targetPoint" />
          </mxGeometry>
        </mxCell>
        <mxCell id="EwHZnWKr4dCBu-Lg2rmB-206" value="monitor the case progress" style="text;html=1;align=center;verticalAlign=middle;resizable=0;points=[];autosize=1;strokeColor=none;fillColor=none;fontFamily=Helvetica;fontSize=12;fontColor=default;fontStyle=1;" vertex="1" parent="EwHZnWKr4dCBu-Lg2rmB-202">
          <mxGeometry x="29.785714285714285" y="12.447552447552448" width="160" height="30" as="geometry" />
        </mxCell>
        <mxCell id="EwHZnWKr4dCBu-Lg2rmB-207" value="forward case" style="text;html=1;align=center;verticalAlign=middle;resizable=0;points=[];autosize=1;strokeColor=none;fillColor=none;fontFamily=Helvetica;fontSize=12;fontColor=default;fontStyle=1;rotation=0;" vertex="1" parent="EwHZnWKr4dCBu-Lg2rmB-202">
          <mxGeometry x="29.785714285714285" y="87.13286713286713" width="90" height="30" as="geometry" />
        </mxCell>
        <mxCell id="EwHZnWKr4dCBu-Lg2rmB-208" value="" style="endArrow=none;html=1;rounded=0;fontFamily=Helvetica;fontSize=12;fontColor=default;fontStyle=1;" edge="1" parent="EwHZnWKr4dCBu-Lg2rmB-202">
          <mxGeometry width="50" height="50" relative="1" as="geometry">
            <mxPoint x="208.5" y="136.92307692307693" as="sourcePoint" />
            <mxPoint x="29.785714285714285" y="136.92307692307693" as="targetPoint" />
          </mxGeometry>
        </mxCell>
        <mxCell id="EwHZnWKr4dCBu-Lg2rmB-209" value="authorize file access" style="text;html=1;align=center;verticalAlign=middle;resizable=0;points=[];autosize=1;strokeColor=none;fillColor=none;fontFamily=Helvetica;fontSize=12;fontColor=default;fontStyle=1;" vertex="1" parent="EwHZnWKr4dCBu-Lg2rmB-202">
          <mxGeometry x="29.785714285714285" y="128.2097902097902" width="130" height="30" as="geometry" />
        </mxCell>
        <mxCell id="EwHZnWKr4dCBu-Lg2rmB-210" value="" style="endArrow=none;html=1;rounded=0;fontFamily=Helvetica;fontSize=12;fontColor=default;fontStyle=1;" edge="1" parent="EwHZnWKr4dCBu-Lg2rmB-202">
          <mxGeometry width="50" height="50" relative="1" as="geometry">
            <mxPoint x="208.5" y="165.55244755244755" as="sourcePoint" />
            <mxPoint x="29.785714285714285" y="165.55244755244755" as="targetPoint" />
          </mxGeometry>
        </mxCell>
        <mxCell id="EwHZnWKr4dCBu-Lg2rmB-211" value="re-open case file" style="text;html=1;align=center;verticalAlign=middle;resizable=0;points=[];autosize=1;strokeColor=none;fillColor=none;fontFamily=Helvetica;fontSize=12;fontColor=default;fontStyle=1;" vertex="1" parent="EwHZnWKr4dCBu-Lg2rmB-202">
          <mxGeometry x="29.785714285714285" y="165.55244755244755" width="110" height="30" as="geometry" />
        </mxCell>
        <mxCell id="EwHZnWKr4dCBu-Lg2rmB-212" value="" style="endArrow=none;html=1;rounded=0;fontFamily=Helvetica;fontSize=12;fontColor=default;fontStyle=1;" edge="1" parent="EwHZnWKr4dCBu-Lg2rmB-202">
          <mxGeometry width="50" height="50" relative="1" as="geometry">
            <mxPoint x="208.5" y="202.8951048951049" as="sourcePoint" />
            <mxPoint x="29.785714285714285" y="202.8951048951049" as="targetPoint" />
          </mxGeometry>
        </mxCell>
        <mxCell id="EwHZnWKr4dCBu-Lg2rmB-213" value="approve case reallocation" style="text;html=1;align=center;verticalAlign=middle;resizable=0;points=[];autosize=1;strokeColor=none;fillColor=none;fontFamily=Helvetica;fontSize=12;fontColor=default;fontStyle=1;" vertex="1" parent="EwHZnWKr4dCBu-Lg2rmB-202">
          <mxGeometry x="29.785714285714285" y="199.16083916083917" width="160" height="30" as="geometry" />
        </mxCell>
        <mxCell id="EwHZnWKr4dCBu-Lg2rmB-214" style="edgeStyle=orthogonalEdgeStyle;rounded=0;orthogonalLoop=1;jettySize=auto;html=1;entryX=1;entryY=0.5;entryDx=0;entryDy=0;fontFamily=Helvetica;fontSize=12;fontColor=default;fontStyle=1;strokeColor=#FF0000;" edge="1" parent="EwHZnWKr4dCBu-Lg2rmB-158" source="EwHZnWKr4dCBu-Lg2rmB-172" target="EwHZnWKr4dCBu-Lg2rmB-196">
          <mxGeometry relative="1" as="geometry">
            <Array as="points">
              <mxPoint x="348" y="402" />
              <mxPoint x="348" y="232" />
            </Array>
          </mxGeometry>
        </mxCell>
        <mxCell id="EwHZnWKr4dCBu-Lg2rmB-356" value="" style="edgeLabel;html=1;align=center;verticalAlign=middle;resizable=0;points=[];strokeColor=#00D4FF;fontFamily=Helvetica;fontSize=12;fontColor=default;fontStyle=1;fillColor=#232BFF;" vertex="1" connectable="0" parent="EwHZnWKr4dCBu-Lg2rmB-214">
          <mxGeometry x="-0.3223" y="5" relative="1" as="geometry">
            <mxPoint y="1" as="offset" />
          </mxGeometry>
        </mxCell>
        <mxCell id="EwHZnWKr4dCBu-Lg2rmB-215" style="edgeStyle=orthogonalEdgeStyle;rounded=0;orthogonalLoop=1;jettySize=auto;html=1;entryX=0.432;entryY=0.056;entryDx=0;entryDy=0;fontFamily=Helvetica;fontSize=12;fontColor=default;fontStyle=1;entryPerimeter=0;exitX=0.5;exitY=1;exitDx=0;exitDy=0;strokeColor=#FF0000;" edge="1" parent="EwHZnWKr4dCBu-Lg2rmB-158" source="EwHZnWKr4dCBu-Lg2rmB-196" target="EwHZnWKr4dCBu-Lg2rmB-201">
          <mxGeometry relative="1" as="geometry">
            <mxPoint x="392.17857142857144" y="597.4825174825176" as="sourcePoint" />
            <Array as="points">
              <mxPoint x="160" y="470" />
              <mxPoint x="705" y="470" />
              <mxPoint x="705" y="50" />
              <mxPoint x="886" y="50" />
            </Array>
          </mxGeometry>
        </mxCell>
        <mxCell id="EwHZnWKr4dCBu-Lg2rmB-216" style="edgeStyle=orthogonalEdgeStyle;rounded=0;orthogonalLoop=1;jettySize=auto;html=1;exitX=1;exitY=0.5;exitDx=0;exitDy=0;entryX=0;entryY=0.5;entryDx=0;entryDy=0;fontFamily=Helvetica;fontSize=12;fontColor=default;fontStyle=1;strokeColor=#FF0000;" edge="1" parent="EwHZnWKr4dCBu-Lg2rmB-158" source="EwHZnWKr4dCBu-Lg2rmB-201" target="EwHZnWKr4dCBu-Lg2rmB-177">
          <mxGeometry relative="1" as="geometry">
            <Array as="points">
              <mxPoint x="953" y="84" />
            </Array>
          </mxGeometry>
        </mxCell>
        <mxCell id="EwHZnWKr4dCBu-Lg2rmB-218" value="" style="group" vertex="1" connectable="0" parent="1">
          <mxGeometry x="270" y="-2130" width="1400" height="572" as="geometry" />
        </mxCell>
        <mxCell id="EwHZnWKr4dCBu-Lg2rmB-223" value="SECRETARY DATA OFFICE" style="swimlane;whiteSpace=wrap;startSize=23;strokeColor=#00DDFF;fillColor=#1900FF;" vertex="1" parent="EwHZnWKr4dCBu-Lg2rmB-218">
          <mxGeometry x="280" y="2" width="280" height="488" as="geometry" />
        </mxCell>
        <mxCell id="EwHZnWKr4dCBu-Lg2rmB-224" style="edgeStyle=orthogonalEdgeStyle;rounded=0;orthogonalLoop=1;jettySize=auto;html=1;entryX=0.5;entryY=0;entryDx=0;entryDy=0;fontFamily=Helvetica;fontSize=12;fontColor=default;fontStyle=1;strokeColor=#FF0000;" edge="1" parent="EwHZnWKr4dCBu-Lg2rmB-223" source="EwHZnWKr4dCBu-Lg2rmB-225" target="EwHZnWKr4dCBu-Lg2rmB-227">
          <mxGeometry relative="1" as="geometry" />
        </mxCell>
        <mxCell id="EwHZnWKr4dCBu-Lg2rmB-225" value="" style="ellipse;whiteSpace=wrap;html=1;aspect=fixed;strokeColor=#FF0000;align=center;verticalAlign=middle;fontFamily=Helvetica;fontSize=12;fontColor=default;fontStyle=1;fillColor=default;" vertex="1" parent="EwHZnWKr4dCBu-Lg2rmB-223">
          <mxGeometry x="125" y="40" width="40" height="40" as="geometry" />
        </mxCell>
        <mxCell id="EwHZnWKr4dCBu-Lg2rmB-226" style="edgeStyle=orthogonalEdgeStyle;rounded=0;orthogonalLoop=1;jettySize=auto;html=1;exitX=0.5;exitY=1;exitDx=0;exitDy=0;entryX=0.5;entryY=0;entryDx=0;entryDy=0;fontFamily=Helvetica;fontSize=12;fontColor=default;fontStyle=1;strokeColor=#FF0000;" edge="1" parent="EwHZnWKr4dCBu-Lg2rmB-223" source="EwHZnWKr4dCBu-Lg2rmB-227" target="EwHZnWKr4dCBu-Lg2rmB-232">
          <mxGeometry relative="1" as="geometry" />
        </mxCell>
        <mxCell id="EwHZnWKr4dCBu-Lg2rmB-227" value="secretary&#39;s functions" style="swimlane;horizontal=0;whiteSpace=wrap;html=1;strokeColor=#1B00A3;align=center;verticalAlign=middle;fontFamily=Helvetica;fontSize=12;fontColor=default;fontStyle=1;fillColor=default;startSize=30;" vertex="1" parent="EwHZnWKr4dCBu-Lg2rmB-223">
          <mxGeometry x="40" y="120" width="210" height="100" as="geometry" />
        </mxCell>
        <mxCell id="EwHZnWKr4dCBu-Lg2rmB-228" value="populate the nominal role" style="text;html=1;align=center;verticalAlign=middle;resizable=0;points=[];autosize=1;strokeColor=none;fillColor=none;fontFamily=Helvetica;fontSize=12;fontColor=default;fontStyle=1;" vertex="1" parent="EwHZnWKr4dCBu-Lg2rmB-227">
          <mxGeometry x="30" y="10" width="160" height="30" as="geometry" />
        </mxCell>
        <mxCell id="EwHZnWKr4dCBu-Lg2rmB-229" value="update the nominal " style="text;html=1;align=center;verticalAlign=middle;resizable=0;points=[];autosize=1;strokeColor=none;fillColor=none;fontFamily=Helvetica;fontSize=12;fontColor=default;fontStyle=1;rotation=0;" vertex="1" parent="EwHZnWKr4dCBu-Lg2rmB-227">
          <mxGeometry x="30" y="40" width="130" height="30" as="geometry" />
        </mxCell>
        <mxCell id="EwHZnWKr4dCBu-Lg2rmB-230" value="" style="endArrow=none;html=1;rounded=0;fontFamily=Helvetica;fontSize=12;fontColor=default;fontStyle=1;" edge="1" parent="EwHZnWKr4dCBu-Lg2rmB-227">
          <mxGeometry width="50" height="50" relative="1" as="geometry">
            <mxPoint x="210" y="70" as="sourcePoint" />
            <mxPoint x="30" y="70" as="targetPoint" />
          </mxGeometry>
        </mxCell>
        <mxCell id="EwHZnWKr4dCBu-Lg2rmB-231" value="" style="endArrow=none;html=1;rounded=0;fontFamily=Helvetica;fontSize=12;fontColor=default;fontStyle=1;" edge="1" parent="EwHZnWKr4dCBu-Lg2rmB-227">
          <mxGeometry width="50" height="50" relative="1" as="geometry">
            <mxPoint x="210" y="40" as="sourcePoint" />
            <mxPoint x="30" y="40" as="targetPoint" />
          </mxGeometry>
        </mxCell>
        <mxCell id="EwHZnWKr4dCBu-Lg2rmB-232" value="nominal role" style="rounded=0;whiteSpace=wrap;html=1;strokeColor=default;align=center;verticalAlign=middle;fontFamily=Helvetica;fontSize=12;fontColor=default;fontStyle=1;fillColor=default;" vertex="1" parent="EwHZnWKr4dCBu-Lg2rmB-223">
          <mxGeometry x="85" y="293" width="120" height="60" as="geometry" />
        </mxCell>
        <mxCell id="EwHZnWKr4dCBu-Lg2rmB-233" value="INVESTIGATION OFFICER" style="swimlane;whiteSpace=wrap;startSize=23;strokeColor=#00DDFF;fillColor=#1900FF;" vertex="1" parent="EwHZnWKr4dCBu-Lg2rmB-218">
          <mxGeometry x="1120" y="-12" width="280" height="490" as="geometry" />
        </mxCell>
        <mxCell id="EwHZnWKr4dCBu-Lg2rmB-234" value="" style="ellipse;shape=endState;fillColor=#FFFFFF;strokeColor=#ff0000" vertex="1" parent="EwHZnWKr4dCBu-Lg2rmB-233">
          <mxGeometry x="125" y="450" width="30" height="30" as="geometry" />
        </mxCell>
        <mxCell id="EwHZnWKr4dCBu-Lg2rmB-235" value="" style="endArrow=open;strokeColor=#FF0000;endFill=1;rounded=0;exitX=0.381;exitY=1.039;exitDx=0;exitDy=0;exitPerimeter=0;" edge="1" parent="EwHZnWKr4dCBu-Lg2rmB-233" source="EwHZnWKr4dCBu-Lg2rmB-251" target="EwHZnWKr4dCBu-Lg2rmB-234">
          <mxGeometry relative="1" as="geometry">
            <mxPoint x="145" y="420" as="sourcePoint" />
          </mxGeometry>
        </mxCell>
        <mxCell id="EwHZnWKr4dCBu-Lg2rmB-236" style="edgeStyle=orthogonalEdgeStyle;rounded=0;orthogonalLoop=1;jettySize=auto;html=1;exitX=0.5;exitY=1;exitDx=0;exitDy=0;fontFamily=Helvetica;fontSize=12;fontColor=default;fontStyle=1;strokeColor=#FF0000;" edge="1" parent="EwHZnWKr4dCBu-Lg2rmB-233" source="EwHZnWKr4dCBu-Lg2rmB-237">
          <mxGeometry relative="1" as="geometry">
            <mxPoint x="170" y="160" as="targetPoint" />
          </mxGeometry>
        </mxCell>
        <mxCell id="EwHZnWKr4dCBu-Lg2rmB-237" value="open case file" style="rounded=0;whiteSpace=wrap;html=1;strokeColor=default;align=center;verticalAlign=middle;fontFamily=Helvetica;fontSize=12;fontColor=default;fontStyle=1;fillColor=default;" vertex="1" parent="EwHZnWKr4dCBu-Lg2rmB-233">
          <mxGeometry x="110" y="60" width="120" height="60" as="geometry" />
        </mxCell>
        <mxCell id="EwHZnWKr4dCBu-Lg2rmB-238" value="&lt;div&gt;IO&lt;br&gt;&lt;/div&gt;&lt;div&gt;functionalities&lt;br&gt;&lt;/div&gt;" style="swimlane;horizontal=0;whiteSpace=wrap;html=1;strokeColor=#2200AB;align=center;verticalAlign=middle;fontFamily=Helvetica;fontSize=12;fontColor=default;fontStyle=1;fillColor=default;startSize=30;" vertex="1" parent="EwHZnWKr4dCBu-Lg2rmB-233">
          <mxGeometry x="50" y="160" width="210" height="220" as="geometry" />
        </mxCell>
        <mxCell id="EwHZnWKr4dCBu-Lg2rmB-239" value="share file for advice" style="text;html=1;align=center;verticalAlign=middle;resizable=0;points=[];autosize=1;strokeColor=none;fillColor=none;fontFamily=Helvetica;fontSize=12;fontColor=default;fontStyle=1;rotation=0;" vertex="1" parent="EwHZnWKr4dCBu-Lg2rmB-238">
          <mxGeometry x="45" y="40" width="130" height="30" as="geometry" />
        </mxCell>
        <mxCell id="EwHZnWKr4dCBu-Lg2rmB-240" value="" style="endArrow=none;html=1;rounded=0;fontFamily=Helvetica;fontSize=12;fontColor=default;fontStyle=1;" edge="1" parent="EwHZnWKr4dCBu-Lg2rmB-238">
          <mxGeometry width="50" height="50" relative="1" as="geometry">
            <mxPoint x="210" y="70" as="sourcePoint" />
            <mxPoint x="30" y="70" as="targetPoint" />
          </mxGeometry>
        </mxCell>
        <mxCell id="EwHZnWKr4dCBu-Lg2rmB-241" value="" style="endArrow=none;html=1;rounded=0;fontFamily=Helvetica;fontSize=12;fontColor=default;fontStyle=1;" edge="1" parent="EwHZnWKr4dCBu-Lg2rmB-238">
          <mxGeometry width="50" height="50" relative="1" as="geometry">
            <mxPoint x="210" y="40" as="sourcePoint" />
            <mxPoint x="30" y="40" as="targetPoint" />
          </mxGeometry>
        </mxCell>
        <mxCell id="EwHZnWKr4dCBu-Lg2rmB-242" value="manage the case file" style="text;html=1;align=center;verticalAlign=middle;resizable=0;points=[];autosize=1;strokeColor=none;fillColor=none;fontFamily=Helvetica;fontSize=12;fontColor=default;fontStyle=1;" vertex="1" parent="EwHZnWKr4dCBu-Lg2rmB-238">
          <mxGeometry x="45" y="10" width="130" height="30" as="geometry" />
        </mxCell>
        <mxCell id="EwHZnWKr4dCBu-Lg2rmB-243" value="" style="endArrow=none;html=1;rounded=0;fontFamily=Helvetica;fontSize=12;fontColor=default;fontStyle=1;" edge="1" parent="EwHZnWKr4dCBu-Lg2rmB-238">
          <mxGeometry width="50" height="50" relative="1" as="geometry">
            <mxPoint x="210" y="110" as="sourcePoint" />
            <mxPoint x="30" y="110" as="targetPoint" />
          </mxGeometry>
        </mxCell>
        <mxCell id="EwHZnWKr4dCBu-Lg2rmB-244" value="" style="endArrow=none;html=1;rounded=0;fontFamily=Helvetica;fontSize=12;fontColor=default;fontStyle=1;" edge="1" parent="EwHZnWKr4dCBu-Lg2rmB-238">
          <mxGeometry width="50" height="50" relative="1" as="geometry">
            <mxPoint x="210" y="133" as="sourcePoint" />
            <mxPoint x="30" y="133" as="targetPoint" />
          </mxGeometry>
        </mxCell>
        <mxCell id="EwHZnWKr4dCBu-Lg2rmB-245" value="re-open case file" style="text;html=1;align=center;verticalAlign=middle;resizable=0;points=[];autosize=1;strokeColor=none;fillColor=none;fontFamily=Helvetica;fontSize=12;fontColor=default;fontStyle=1;" vertex="1" parent="EwHZnWKr4dCBu-Lg2rmB-238">
          <mxGeometry x="50" y="70" width="110" height="30" as="geometry" />
        </mxCell>
        <mxCell id="EwHZnWKr4dCBu-Lg2rmB-246" value="" style="endArrow=none;html=1;rounded=0;fontFamily=Helvetica;fontSize=12;fontColor=default;fontStyle=1;" edge="1" parent="EwHZnWKr4dCBu-Lg2rmB-238">
          <mxGeometry width="50" height="50" relative="1" as="geometry">
            <mxPoint x="210" y="163" as="sourcePoint" />
            <mxPoint x="30" y="163" as="targetPoint" />
          </mxGeometry>
        </mxCell>
        <mxCell id="EwHZnWKr4dCBu-Lg2rmB-247" value="view assigned cases" style="text;html=1;align=center;verticalAlign=middle;resizable=0;points=[];autosize=1;strokeColor=none;fillColor=none;fontFamily=Helvetica;fontSize=12;fontColor=default;fontStyle=1;" vertex="1" parent="EwHZnWKr4dCBu-Lg2rmB-238">
          <mxGeometry x="40" y="103" width="130" height="30" as="geometry" />
        </mxCell>
        <mxCell id="EwHZnWKr4dCBu-Lg2rmB-248" value="reallocated the file" style="text;html=1;align=center;verticalAlign=middle;resizable=0;points=[];autosize=1;strokeColor=none;fillColor=none;fontFamily=Helvetica;fontSize=12;fontColor=default;fontStyle=1;" vertex="1" parent="EwHZnWKr4dCBu-Lg2rmB-238">
          <mxGeometry x="45" y="160" width="120" height="30" as="geometry" />
        </mxCell>
        <mxCell id="EwHZnWKr4dCBu-Lg2rmB-249" value="close case" style="text;html=1;align=center;verticalAlign=middle;resizable=0;points=[];autosize=1;strokeColor=none;fillColor=none;fontFamily=Helvetica;fontSize=12;fontColor=default;fontStyle=1;" vertex="1" parent="EwHZnWKr4dCBu-Lg2rmB-238">
          <mxGeometry x="50" y="133" width="80" height="30" as="geometry" />
        </mxCell>
        <mxCell id="EwHZnWKr4dCBu-Lg2rmB-250" value="" style="endArrow=none;html=1;rounded=0;fontFamily=Helvetica;fontSize=12;fontColor=default;fontStyle=1;" edge="1" parent="EwHZnWKr4dCBu-Lg2rmB-238">
          <mxGeometry width="50" height="50" relative="1" as="geometry">
            <mxPoint x="210" y="190" as="sourcePoint" />
            <mxPoint x="30" y="190" as="targetPoint" />
          </mxGeometry>
        </mxCell>
        <mxCell id="EwHZnWKr4dCBu-Lg2rmB-251" value="retrieve crime history files" style="text;html=1;align=center;verticalAlign=middle;resizable=0;points=[];autosize=1;strokeColor=none;fillColor=none;fontFamily=Helvetica;fontSize=12;fontColor=default;fontStyle=1;" vertex="1" parent="EwHZnWKr4dCBu-Lg2rmB-238">
          <mxGeometry x="30" y="190" width="160" height="30" as="geometry" />
        </mxCell>
        <mxCell id="EwHZnWKr4dCBu-Lg2rmB-259" value="STATION HEAD" style="swimlane;whiteSpace=wrap;strokeColor=#00DDFF;fillColor=#1900FF;" vertex="1" parent="EwHZnWKr4dCBu-Lg2rmB-218">
          <mxGeometry x="660" y="-10" width="280" height="500" as="geometry" />
        </mxCell>
        <mxCell id="EwHZnWKr4dCBu-Lg2rmB-260" style="edgeStyle=orthogonalEdgeStyle;rounded=0;orthogonalLoop=1;jettySize=auto;html=1;exitX=0.5;exitY=1;exitDx=0;exitDy=0;fontFamily=Helvetica;fontSize=12;fontColor=default;fontStyle=1;" edge="1" parent="EwHZnWKr4dCBu-Lg2rmB-259" source="EwHZnWKr4dCBu-Lg2rmB-261">
          <mxGeometry relative="1" as="geometry">
            <mxPoint x="150.16666666666674" y="160" as="targetPoint" />
          </mxGeometry>
        </mxCell>
        <mxCell id="EwHZnWKr4dCBu-Lg2rmB-261" value="approve recommended officers" style="rounded=0;whiteSpace=wrap;html=1;strokeColor=default;align=center;verticalAlign=middle;fontFamily=Helvetica;fontSize=12;fontColor=default;fontStyle=1;fillColor=default;" vertex="1" parent="EwHZnWKr4dCBu-Lg2rmB-259">
          <mxGeometry x="90" y="60" width="120" height="60" as="geometry" />
        </mxCell>
        <mxCell id="EwHZnWKr4dCBu-Lg2rmB-262" value="&lt;div&gt;head&#39;s&lt;/div&gt;&lt;div&gt;functionalities&lt;br&gt;&lt;/div&gt;" style="swimlane;horizontal=0;whiteSpace=wrap;html=1;strokeColor=#2200AB;align=center;verticalAlign=middle;fontFamily=Helvetica;fontSize=12;fontColor=default;fontStyle=1;fillColor=default;startSize=30;" vertex="1" parent="EwHZnWKr4dCBu-Lg2rmB-259">
          <mxGeometry x="50" y="160" width="210" height="190" as="geometry" />
        </mxCell>
        <mxCell id="EwHZnWKr4dCBu-Lg2rmB-263" value="evaluate reports" style="text;html=1;align=center;verticalAlign=middle;resizable=0;points=[];autosize=1;strokeColor=none;fillColor=none;fontFamily=Helvetica;fontSize=12;fontColor=default;fontStyle=1;rotation=0;" vertex="1" parent="EwHZnWKr4dCBu-Lg2rmB-262">
          <mxGeometry x="30" y="40" width="110" height="30" as="geometry" />
        </mxCell>
        <mxCell id="EwHZnWKr4dCBu-Lg2rmB-264" value="" style="endArrow=none;html=1;rounded=0;fontFamily=Helvetica;fontSize=12;fontColor=default;fontStyle=1;" edge="1" parent="EwHZnWKr4dCBu-Lg2rmB-262">
          <mxGeometry width="50" height="50" relative="1" as="geometry">
            <mxPoint x="210" y="70" as="sourcePoint" />
            <mxPoint x="30" y="70" as="targetPoint" />
          </mxGeometry>
        </mxCell>
        <mxCell id="EwHZnWKr4dCBu-Lg2rmB-265" value="" style="endArrow=none;html=1;rounded=0;fontFamily=Helvetica;fontSize=12;fontColor=default;fontStyle=1;" edge="1" parent="EwHZnWKr4dCBu-Lg2rmB-262">
          <mxGeometry width="50" height="50" relative="1" as="geometry">
            <mxPoint x="210" y="40" as="sourcePoint" />
            <mxPoint x="30" y="40" as="targetPoint" />
          </mxGeometry>
        </mxCell>
        <mxCell id="EwHZnWKr4dCBu-Lg2rmB-266" value="monitor the case progress" style="text;html=1;align=center;verticalAlign=middle;resizable=0;points=[];autosize=1;strokeColor=none;fillColor=none;fontFamily=Helvetica;fontSize=12;fontColor=default;fontStyle=1;" vertex="1" parent="EwHZnWKr4dCBu-Lg2rmB-262">
          <mxGeometry x="30" y="10" width="160" height="30" as="geometry" />
        </mxCell>
        <mxCell id="EwHZnWKr4dCBu-Lg2rmB-267" value="forward case" style="text;html=1;align=center;verticalAlign=middle;resizable=0;points=[];autosize=1;strokeColor=none;fillColor=none;fontFamily=Helvetica;fontSize=12;fontColor=default;fontStyle=1;rotation=0;" vertex="1" parent="EwHZnWKr4dCBu-Lg2rmB-262">
          <mxGeometry x="30" y="70" width="90" height="30" as="geometry" />
        </mxCell>
        <mxCell id="EwHZnWKr4dCBu-Lg2rmB-268" value="" style="endArrow=none;html=1;rounded=0;fontFamily=Helvetica;fontSize=12;fontColor=default;fontStyle=1;" edge="1" parent="EwHZnWKr4dCBu-Lg2rmB-262">
          <mxGeometry width="50" height="50" relative="1" as="geometry">
            <mxPoint x="210" y="110" as="sourcePoint" />
            <mxPoint x="30" y="110" as="targetPoint" />
          </mxGeometry>
        </mxCell>
        <mxCell id="EwHZnWKr4dCBu-Lg2rmB-269" value="authorize file access" style="text;html=1;align=center;verticalAlign=middle;resizable=0;points=[];autosize=1;strokeColor=none;fillColor=none;fontFamily=Helvetica;fontSize=12;fontColor=default;fontStyle=1;" vertex="1" parent="EwHZnWKr4dCBu-Lg2rmB-262">
          <mxGeometry x="30" y="103" width="130" height="30" as="geometry" />
        </mxCell>
        <mxCell id="EwHZnWKr4dCBu-Lg2rmB-270" value="" style="endArrow=none;html=1;rounded=0;fontFamily=Helvetica;fontSize=12;fontColor=default;fontStyle=1;" edge="1" parent="EwHZnWKr4dCBu-Lg2rmB-262">
          <mxGeometry width="50" height="50" relative="1" as="geometry">
            <mxPoint x="210" y="133" as="sourcePoint" />
            <mxPoint x="30" y="133" as="targetPoint" />
          </mxGeometry>
        </mxCell>
        <mxCell id="EwHZnWKr4dCBu-Lg2rmB-271" value="re-open case file" style="text;html=1;align=center;verticalAlign=middle;resizable=0;points=[];autosize=1;strokeColor=none;fillColor=none;fontFamily=Helvetica;fontSize=12;fontColor=default;fontStyle=1;" vertex="1" parent="EwHZnWKr4dCBu-Lg2rmB-262">
          <mxGeometry x="30" y="133" width="110" height="30" as="geometry" />
        </mxCell>
        <mxCell id="EwHZnWKr4dCBu-Lg2rmB-272" value="" style="endArrow=none;html=1;rounded=0;fontFamily=Helvetica;fontSize=12;fontColor=default;fontStyle=1;" edge="1" parent="EwHZnWKr4dCBu-Lg2rmB-262">
          <mxGeometry width="50" height="50" relative="1" as="geometry">
            <mxPoint x="210" y="163" as="sourcePoint" />
            <mxPoint x="30" y="163" as="targetPoint" />
          </mxGeometry>
        </mxCell>
        <mxCell id="EwHZnWKr4dCBu-Lg2rmB-273" value="approve case reallocation" style="text;html=1;align=center;verticalAlign=middle;resizable=0;points=[];autosize=1;strokeColor=none;fillColor=none;fontFamily=Helvetica;fontSize=12;fontColor=default;fontStyle=1;" vertex="1" parent="EwHZnWKr4dCBu-Lg2rmB-262">
          <mxGeometry x="30" y="160" width="160" height="30" as="geometry" />
        </mxCell>
        <mxCell id="EwHZnWKr4dCBu-Lg2rmB-276" style="edgeStyle=orthogonalEdgeStyle;rounded=0;orthogonalLoop=1;jettySize=auto;html=1;exitX=1;exitY=0.5;exitDx=0;exitDy=0;entryX=0;entryY=0.5;entryDx=0;entryDy=0;fontFamily=Helvetica;fontSize=12;fontColor=default;fontStyle=1;strokeColor=#FF0000;" edge="1" parent="EwHZnWKr4dCBu-Lg2rmB-218" source="EwHZnWKr4dCBu-Lg2rmB-261" target="EwHZnWKr4dCBu-Lg2rmB-237">
          <mxGeometry relative="1" as="geometry">
            <Array as="points">
              <mxPoint x="870" y="90" />
            </Array>
          </mxGeometry>
        </mxCell>
        <mxCell id="EwHZnWKr4dCBu-Lg2rmB-256" value="&lt;div&gt;suggest&lt;br&gt;&lt;/div&gt;&lt;div&gt;allocate cases&lt;/div&gt;" style="rounded=0;whiteSpace=wrap;html=1;strokeColor=default;align=center;verticalAlign=middle;fontFamily=Helvetica;fontSize=12;fontColor=default;fontStyle=1;fillColor=default;" vertex="1" parent="EwHZnWKr4dCBu-Lg2rmB-218">
          <mxGeometry x="-55.80333333333327" y="228" width="120" height="60" as="geometry" />
        </mxCell>
        <mxCell id="EwHZnWKr4dCBu-Lg2rmB-275" style="edgeStyle=orthogonalEdgeStyle;rounded=0;orthogonalLoop=1;jettySize=auto;html=1;entryX=0.432;entryY=0.056;entryDx=0;entryDy=0;fontFamily=Helvetica;fontSize=12;fontColor=default;fontStyle=1;entryPerimeter=0;exitX=0.5;exitY=1;exitDx=0;exitDy=0;strokeColor=#FF0000;" edge="1" parent="EwHZnWKr4dCBu-Lg2rmB-218" source="EwHZnWKr4dCBu-Lg2rmB-256" target="EwHZnWKr4dCBu-Lg2rmB-261">
          <mxGeometry relative="1" as="geometry">
            <mxPoint x="395" y="480" as="sourcePoint" />
            <Array as="points">
              <mxPoint x="4" y="400" />
              <mxPoint x="620" y="400" />
              <mxPoint x="620" y="40" />
              <mxPoint x="802" y="40" />
            </Array>
          </mxGeometry>
        </mxCell>
        <mxCell id="EwHZnWKr4dCBu-Lg2rmB-274" style="edgeStyle=orthogonalEdgeStyle;rounded=0;orthogonalLoop=1;jettySize=auto;html=1;entryX=1;entryY=0.5;entryDx=0;entryDy=0;fontFamily=Helvetica;fontSize=12;fontColor=default;fontStyle=1;strokeColor=#FF0000;" edge="1" parent="EwHZnWKr4dCBu-Lg2rmB-218" source="EwHZnWKr4dCBu-Lg2rmB-232" target="EwHZnWKr4dCBu-Lg2rmB-256">
          <mxGeometry relative="1" as="geometry">
            <Array as="points">
              <mxPoint x="170" y="323" />
              <mxPoint x="170" y="258" />
            </Array>
          </mxGeometry>
        </mxCell>
        <mxCell id="EwHZnWKr4dCBu-Lg2rmB-278" value="" style="group" vertex="1" connectable="0" parent="1">
          <mxGeometry x="175" y="-1160" width="1420" height="572" as="geometry" />
        </mxCell>
        <mxCell id="EwHZnWKr4dCBu-Lg2rmB-283" value="SECRETARY DATA OFFICE" style="swimlane;whiteSpace=wrap;startSize=23;strokeColor=#00DDFF;fillColor=#1900FF;" vertex="1" parent="EwHZnWKr4dCBu-Lg2rmB-278">
          <mxGeometry x="390" width="280" height="490" as="geometry" />
        </mxCell>
        <mxCell id="EwHZnWKr4dCBu-Lg2rmB-284" style="edgeStyle=orthogonalEdgeStyle;rounded=0;orthogonalLoop=1;jettySize=auto;html=1;entryX=0.5;entryY=0;entryDx=0;entryDy=0;fontFamily=Helvetica;fontSize=12;fontColor=default;fontStyle=1;strokeColor=#FF0000;" edge="1" parent="EwHZnWKr4dCBu-Lg2rmB-283" source="EwHZnWKr4dCBu-Lg2rmB-285" target="EwHZnWKr4dCBu-Lg2rmB-287">
          <mxGeometry relative="1" as="geometry" />
        </mxCell>
        <mxCell id="EwHZnWKr4dCBu-Lg2rmB-285" value="" style="ellipse;whiteSpace=wrap;html=1;aspect=fixed;strokeColor=#FF0000;align=center;verticalAlign=middle;fontFamily=Helvetica;fontSize=12;fontColor=default;fontStyle=1;fillColor=default;" vertex="1" parent="EwHZnWKr4dCBu-Lg2rmB-283">
          <mxGeometry x="125" y="40" width="40" height="40" as="geometry" />
        </mxCell>
        <mxCell id="EwHZnWKr4dCBu-Lg2rmB-286" style="edgeStyle=orthogonalEdgeStyle;rounded=0;orthogonalLoop=1;jettySize=auto;html=1;exitX=0.5;exitY=1;exitDx=0;exitDy=0;entryX=0.5;entryY=0;entryDx=0;entryDy=0;fontFamily=Helvetica;fontSize=12;fontColor=default;fontStyle=1;strokeColor=#FF0000;" edge="1" parent="EwHZnWKr4dCBu-Lg2rmB-283" source="EwHZnWKr4dCBu-Lg2rmB-287" target="EwHZnWKr4dCBu-Lg2rmB-292">
          <mxGeometry relative="1" as="geometry" />
        </mxCell>
        <mxCell id="EwHZnWKr4dCBu-Lg2rmB-287" value="secretary&#39;s functions" style="swimlane;horizontal=0;whiteSpace=wrap;html=1;strokeColor=#1B00A3;align=center;verticalAlign=middle;fontFamily=Helvetica;fontSize=12;fontColor=default;fontStyle=1;fillColor=default;startSize=30;" vertex="1" parent="EwHZnWKr4dCBu-Lg2rmB-283">
          <mxGeometry x="40" y="120" width="210" height="100" as="geometry" />
        </mxCell>
        <mxCell id="EwHZnWKr4dCBu-Lg2rmB-288" value="populate the nominal role" style="text;html=1;align=center;verticalAlign=middle;resizable=0;points=[];autosize=1;strokeColor=none;fillColor=none;fontFamily=Helvetica;fontSize=12;fontColor=default;fontStyle=1;" vertex="1" parent="EwHZnWKr4dCBu-Lg2rmB-287">
          <mxGeometry x="30" y="10" width="160" height="30" as="geometry" />
        </mxCell>
        <mxCell id="EwHZnWKr4dCBu-Lg2rmB-289" value="update the nominal " style="text;html=1;align=center;verticalAlign=middle;resizable=0;points=[];autosize=1;strokeColor=none;fillColor=none;fontFamily=Helvetica;fontSize=12;fontColor=default;fontStyle=1;rotation=0;" vertex="1" parent="EwHZnWKr4dCBu-Lg2rmB-287">
          <mxGeometry x="30" y="40" width="130" height="30" as="geometry" />
        </mxCell>
        <mxCell id="EwHZnWKr4dCBu-Lg2rmB-290" value="" style="endArrow=none;html=1;rounded=0;fontFamily=Helvetica;fontSize=12;fontColor=default;fontStyle=1;" edge="1" parent="EwHZnWKr4dCBu-Lg2rmB-287">
          <mxGeometry width="50" height="50" relative="1" as="geometry">
            <mxPoint x="210" y="70" as="sourcePoint" />
            <mxPoint x="30" y="70" as="targetPoint" />
          </mxGeometry>
        </mxCell>
        <mxCell id="EwHZnWKr4dCBu-Lg2rmB-291" value="" style="endArrow=none;html=1;rounded=0;fontFamily=Helvetica;fontSize=12;fontColor=default;fontStyle=1;" edge="1" parent="EwHZnWKr4dCBu-Lg2rmB-287">
          <mxGeometry width="50" height="50" relative="1" as="geometry">
            <mxPoint x="210" y="40" as="sourcePoint" />
            <mxPoint x="30" y="40" as="targetPoint" />
          </mxGeometry>
        </mxCell>
        <mxCell id="EwHZnWKr4dCBu-Lg2rmB-292" value="nominal role" style="rounded=0;whiteSpace=wrap;html=1;strokeColor=default;align=center;verticalAlign=middle;fontFamily=Helvetica;fontSize=12;fontColor=default;fontStyle=1;fillColor=default;" vertex="1" parent="EwHZnWKr4dCBu-Lg2rmB-283">
          <mxGeometry x="85" y="293" width="120" height="60" as="geometry" />
        </mxCell>
        <mxCell id="EwHZnWKr4dCBu-Lg2rmB-318" value="" style="endArrow=open;strokeColor=#FF0000;endFill=1;rounded=0" edge="1" parent="EwHZnWKr4dCBu-Lg2rmB-278" target="EwHZnWKr4dCBu-Lg2rmB-313">
          <mxGeometry relative="1" as="geometry">
            <mxPoint x="169.99999999999955" y="165" as="sourcePoint" />
          </mxGeometry>
        </mxCell>
        <mxCell id="EwHZnWKr4dCBu-Lg2rmB-384" style="edgeStyle=orthogonalEdgeStyle;rounded=0;orthogonalLoop=1;jettySize=auto;html=1;exitX=0.5;exitY=1;exitDx=0;exitDy=0;fontFamily=Helvetica;fontSize=12;fontColor=default;fontStyle=1;" edge="1" parent="EwHZnWKr4dCBu-Lg2rmB-278" source="EwHZnWKr4dCBu-Lg2rmB-319">
          <mxGeometry relative="1" as="geometry">
            <mxPoint x="1235" y="600.0000000000005" as="targetPoint" />
          </mxGeometry>
        </mxCell>
        <mxCell id="EwHZnWKr4dCBu-Lg2rmB-319" value="STATION HEAD" style="swimlane;whiteSpace=wrap;strokeColor=#00DDFF;fillColor=#1900FF;" vertex="1" parent="EwHZnWKr4dCBu-Lg2rmB-278">
          <mxGeometry x="835" y="-10" width="280" height="490" as="geometry" />
        </mxCell>
        <mxCell id="EwHZnWKr4dCBu-Lg2rmB-320" style="edgeStyle=orthogonalEdgeStyle;rounded=0;orthogonalLoop=1;jettySize=auto;html=1;exitX=0.5;exitY=1;exitDx=0;exitDy=0;fontFamily=Helvetica;fontSize=12;fontColor=default;fontStyle=1;" edge="1" parent="EwHZnWKr4dCBu-Lg2rmB-319" source="EwHZnWKr4dCBu-Lg2rmB-321">
          <mxGeometry relative="1" as="geometry">
            <mxPoint x="150.16666666666674" y="160" as="targetPoint" />
          </mxGeometry>
        </mxCell>
        <mxCell id="EwHZnWKr4dCBu-Lg2rmB-321" value="approve recommended officers" style="rounded=0;whiteSpace=wrap;html=1;strokeColor=default;align=center;verticalAlign=middle;fontFamily=Helvetica;fontSize=12;fontColor=default;fontStyle=1;fillColor=default;" vertex="1" parent="EwHZnWKr4dCBu-Lg2rmB-319">
          <mxGeometry x="90" y="60" width="120" height="60" as="geometry" />
        </mxCell>
        <mxCell id="EwHZnWKr4dCBu-Lg2rmB-322" value="&lt;div&gt;head&#39;s&lt;/div&gt;&lt;div&gt;functionalities&lt;br&gt;&lt;/div&gt;" style="swimlane;horizontal=0;whiteSpace=wrap;html=1;strokeColor=#2200AB;align=center;verticalAlign=middle;fontFamily=Helvetica;fontSize=12;fontColor=default;fontStyle=1;fillColor=default;startSize=30;" vertex="1" parent="EwHZnWKr4dCBu-Lg2rmB-319">
          <mxGeometry x="50" y="160" width="210" height="190" as="geometry" />
        </mxCell>
        <mxCell id="EwHZnWKr4dCBu-Lg2rmB-323" value="evaluate reports" style="text;html=1;align=center;verticalAlign=middle;resizable=0;points=[];autosize=1;strokeColor=none;fillColor=none;fontFamily=Helvetica;fontSize=12;fontColor=default;fontStyle=1;rotation=0;" vertex="1" parent="EwHZnWKr4dCBu-Lg2rmB-322">
          <mxGeometry x="30" y="40" width="110" height="30" as="geometry" />
        </mxCell>
        <mxCell id="EwHZnWKr4dCBu-Lg2rmB-324" value="" style="endArrow=none;html=1;rounded=0;fontFamily=Helvetica;fontSize=12;fontColor=default;fontStyle=1;" edge="1" parent="EwHZnWKr4dCBu-Lg2rmB-322">
          <mxGeometry width="50" height="50" relative="1" as="geometry">
            <mxPoint x="210" y="70" as="sourcePoint" />
            <mxPoint x="30" y="70" as="targetPoint" />
          </mxGeometry>
        </mxCell>
        <mxCell id="EwHZnWKr4dCBu-Lg2rmB-325" value="" style="endArrow=none;html=1;rounded=0;fontFamily=Helvetica;fontSize=12;fontColor=default;fontStyle=1;" edge="1" parent="EwHZnWKr4dCBu-Lg2rmB-322">
          <mxGeometry width="50" height="50" relative="1" as="geometry">
            <mxPoint x="210" y="40" as="sourcePoint" />
            <mxPoint x="30" y="40" as="targetPoint" />
          </mxGeometry>
        </mxCell>
        <mxCell id="EwHZnWKr4dCBu-Lg2rmB-326" value="monitor the case progress" style="text;html=1;align=center;verticalAlign=middle;resizable=0;points=[];autosize=1;strokeColor=none;fillColor=none;fontFamily=Helvetica;fontSize=12;fontColor=default;fontStyle=1;" vertex="1" parent="EwHZnWKr4dCBu-Lg2rmB-322">
          <mxGeometry x="30" y="10" width="160" height="30" as="geometry" />
        </mxCell>
        <mxCell id="EwHZnWKr4dCBu-Lg2rmB-327" value="forward case" style="text;html=1;align=center;verticalAlign=middle;resizable=0;points=[];autosize=1;strokeColor=none;fillColor=none;fontFamily=Helvetica;fontSize=12;fontColor=default;fontStyle=1;rotation=0;" vertex="1" parent="EwHZnWKr4dCBu-Lg2rmB-322">
          <mxGeometry x="30" y="70" width="90" height="30" as="geometry" />
        </mxCell>
        <mxCell id="EwHZnWKr4dCBu-Lg2rmB-328" value="" style="endArrow=none;html=1;rounded=0;fontFamily=Helvetica;fontSize=12;fontColor=default;fontStyle=1;" edge="1" parent="EwHZnWKr4dCBu-Lg2rmB-322">
          <mxGeometry width="50" height="50" relative="1" as="geometry">
            <mxPoint x="210" y="110" as="sourcePoint" />
            <mxPoint x="30" y="110" as="targetPoint" />
          </mxGeometry>
        </mxCell>
        <mxCell id="EwHZnWKr4dCBu-Lg2rmB-329" value="authorize file access" style="text;html=1;align=center;verticalAlign=middle;resizable=0;points=[];autosize=1;strokeColor=none;fillColor=none;fontFamily=Helvetica;fontSize=12;fontColor=default;fontStyle=1;" vertex="1" parent="EwHZnWKr4dCBu-Lg2rmB-322">
          <mxGeometry x="30" y="103" width="130" height="30" as="geometry" />
        </mxCell>
        <mxCell id="EwHZnWKr4dCBu-Lg2rmB-330" value="" style="endArrow=none;html=1;rounded=0;fontFamily=Helvetica;fontSize=12;fontColor=default;fontStyle=1;" edge="1" parent="EwHZnWKr4dCBu-Lg2rmB-322">
          <mxGeometry width="50" height="50" relative="1" as="geometry">
            <mxPoint x="210" y="133" as="sourcePoint" />
            <mxPoint x="30" y="133" as="targetPoint" />
          </mxGeometry>
        </mxCell>
        <mxCell id="EwHZnWKr4dCBu-Lg2rmB-331" value="re-open case file" style="text;html=1;align=center;verticalAlign=middle;resizable=0;points=[];autosize=1;strokeColor=none;fillColor=none;fontFamily=Helvetica;fontSize=12;fontColor=default;fontStyle=1;" vertex="1" parent="EwHZnWKr4dCBu-Lg2rmB-322">
          <mxGeometry x="30" y="133" width="110" height="30" as="geometry" />
        </mxCell>
        <mxCell id="EwHZnWKr4dCBu-Lg2rmB-332" value="" style="endArrow=none;html=1;rounded=0;fontFamily=Helvetica;fontSize=12;fontColor=default;fontStyle=1;" edge="1" parent="EwHZnWKr4dCBu-Lg2rmB-322">
          <mxGeometry width="50" height="50" relative="1" as="geometry">
            <mxPoint x="210" y="163" as="sourcePoint" />
            <mxPoint x="30" y="163" as="targetPoint" />
          </mxGeometry>
        </mxCell>
        <mxCell id="EwHZnWKr4dCBu-Lg2rmB-333" value="approve case reallocation" style="text;html=1;align=center;verticalAlign=middle;resizable=0;points=[];autosize=1;strokeColor=none;fillColor=none;fontFamily=Helvetica;fontSize=12;fontColor=default;fontStyle=1;" vertex="1" parent="EwHZnWKr4dCBu-Lg2rmB-322">
          <mxGeometry x="30" y="160" width="160" height="30" as="geometry" />
        </mxCell>
        <mxCell id="EwHZnWKr4dCBu-Lg2rmB-349" value="ML MODEL" style="swimlane;whiteSpace=wrap;fillColor=#232BFF;strokeColor=#00D4FF;" vertex="1" parent="EwHZnWKr4dCBu-Lg2rmB-278">
          <mxGeometry x="10" y="1" width="280" height="489" as="geometry" />
        </mxCell>
        <mxCell id="EwHZnWKr4dCBu-Lg2rmB-353" value="&lt;div&gt;suggest&lt;br&gt;&lt;/div&gt;&lt;div&gt;allocate cases&lt;/div&gt;" style="rounded=0;whiteSpace=wrap;html=1;strokeColor=default;align=center;verticalAlign=middle;fontFamily=Helvetica;fontSize=12;fontColor=default;fontStyle=1;fillColor=default;" vertex="1" parent="EwHZnWKr4dCBu-Lg2rmB-349">
          <mxGeometry x="73.2" y="237" width="120" height="63" as="geometry" />
        </mxCell>
        <mxCell id="EwHZnWKr4dCBu-Lg2rmB-380" style="edgeStyle=orthogonalEdgeStyle;rounded=0;orthogonalLoop=1;jettySize=auto;html=1;entryX=1;entryY=0.5;entryDx=0;entryDy=0;fontFamily=Helvetica;fontSize=12;fontColor=default;fontStyle=1;" edge="1" parent="EwHZnWKr4dCBu-Lg2rmB-278" source="EwHZnWKr4dCBu-Lg2rmB-292" target="EwHZnWKr4dCBu-Lg2rmB-353">
          <mxGeometry relative="1" as="geometry" />
        </mxCell>
        <mxCell id="EwHZnWKr4dCBu-Lg2rmB-381" style="edgeStyle=orthogonalEdgeStyle;rounded=0;orthogonalLoop=1;jettySize=auto;html=1;entryX=0;entryY=0.25;entryDx=0;entryDy=0;fontFamily=Helvetica;fontSize=12;fontColor=default;fontStyle=1;" edge="1" parent="EwHZnWKr4dCBu-Lg2rmB-278" source="EwHZnWKr4dCBu-Lg2rmB-353" target="EwHZnWKr4dCBu-Lg2rmB-321">
          <mxGeometry relative="1" as="geometry">
            <Array as="points">
              <mxPoint x="143" y="390" />
              <mxPoint x="745" y="390" />
              <mxPoint x="745" y="65" />
            </Array>
          </mxGeometry>
        </mxCell>
        <mxCell id="EwHZnWKr4dCBu-Lg2rmB-338" value="&lt;div&gt;&lt;font style=&quot;font-size: 36px;&quot;&gt;&lt;b&gt;COUNTY OFFICE&lt;/b&gt;&lt;/font&gt;&lt;/div&gt;&lt;div&gt;&lt;font style=&quot;font-size: 36px;&quot;&gt;&lt;b&gt;(CCIO)&lt;/b&gt;&lt;/font&gt;&lt;/div&gt;" style="rounded=1;whiteSpace=wrap;html=1;" vertex="1" parent="1">
          <mxGeometry x="-490" y="-1400" width="386" height="140" as="geometry" />
        </mxCell>
        <mxCell id="EwHZnWKr4dCBu-Lg2rmB-339" value="&lt;div&gt;&lt;font style=&quot;font-size: 36px;&quot;&gt;&lt;b&gt;SUB COUNTY OFFICE&lt;br&gt;&lt;/b&gt;&lt;/font&gt;&lt;/div&gt;&lt;div&gt;&lt;font style=&quot;font-size: 36px;&quot;&gt;&lt;b&gt;(SCCIO)&lt;/b&gt;&lt;/font&gt;&lt;/div&gt;" style="rounded=1;whiteSpace=wrap;html=1;" vertex="1" parent="1">
          <mxGeometry x="-490" y="-483" width="386" height="140" as="geometry" />
        </mxCell>
        <mxCell id="EwHZnWKr4dCBu-Lg2rmB-340" value="&lt;div&gt;&lt;font style=&quot;font-size: 36px;&quot;&gt;&lt;b&gt;REGIONAL OFFICE&lt;/b&gt;&lt;/font&gt;&lt;/div&gt;&lt;div&gt;&lt;font style=&quot;font-size: 36px;&quot;&gt;&lt;b&gt;(RCCIO)&lt;br&gt;&lt;/b&gt;&lt;/font&gt;&lt;/div&gt;" style="rounded=1;whiteSpace=wrap;html=1;" vertex="1" parent="1">
          <mxGeometry x="-470" y="-2170" width="386" height="140" as="geometry" />
        </mxCell>
        <mxCell id="EwHZnWKr4dCBu-Lg2rmB-341" value="&lt;div&gt;&lt;font style=&quot;font-size: 36px;&quot;&gt;&lt;b&gt;NATIONAL OFFICE&lt;/b&gt;&lt;/font&gt;&lt;/div&gt;&lt;div&gt;&lt;font style=&quot;font-size: 36px;&quot;&gt;&lt;b&gt;(DIG)&lt;br&gt;&lt;/b&gt;&lt;/font&gt;&lt;/div&gt;" style="rounded=1;whiteSpace=wrap;html=1;" vertex="1" parent="1">
          <mxGeometry x="-460" y="-3010" width="386" height="140" as="geometry" />
        </mxCell>
        <mxCell id="EwHZnWKr4dCBu-Lg2rmB-373" style="edgeStyle=orthogonalEdgeStyle;rounded=0;orthogonalLoop=1;jettySize=auto;html=1;exitX=0.5;exitY=0;exitDx=0;exitDy=0;entryX=0;entryY=0.5;entryDx=0;entryDy=0;fontFamily=Helvetica;fontSize=12;fontColor=default;fontStyle=1;" edge="1" parent="1" source="EwHZnWKr4dCBu-Lg2rmB-360" target="EwHZnWKr4dCBu-Lg2rmB-347">
          <mxGeometry relative="1" as="geometry">
            <Array as="points">
              <mxPoint x="435" y="220" />
              <mxPoint x="150" y="220" />
              <mxPoint x="150" y="-99" />
            </Array>
          </mxGeometry>
        </mxCell>
        <mxCell id="EwHZnWKr4dCBu-Lg2rmB-360" value="&lt;font size=&quot;3&quot;&gt;TRANSFER COMPLEX CASE&lt;/font&gt;" style="rounded=1;whiteSpace=wrap;html=1;strokeColor=#00D4FF;align=center;verticalAlign=middle;fontFamily=Helvetica;fontSize=12;fontColor=default;fontStyle=1;fillColor=#AEFFFF;" vertex="1" parent="1">
          <mxGeometry x="170" y="300" width="530" height="60" as="geometry" />
        </mxCell>
        <mxCell id="EwHZnWKr4dCBu-Lg2rmB-372" style="edgeStyle=orthogonalEdgeStyle;rounded=0;orthogonalLoop=1;jettySize=auto;html=1;exitX=0.5;exitY=1;exitDx=0;exitDy=0;fontFamily=Helvetica;fontSize=12;fontColor=default;fontStyle=1;" edge="1" parent="1" source="EwHZnWKr4dCBu-Lg2rmB-361">
          <mxGeometry relative="1" as="geometry">
            <mxPoint x="1280" y="530" as="targetPoint" />
          </mxGeometry>
        </mxCell>
        <mxCell id="EwHZnWKr4dCBu-Lg2rmB-361" value="&lt;font size=&quot;3&quot;&gt;REQUEST CASES&lt;br&gt;&lt;/font&gt;" style="rounded=1;whiteSpace=wrap;html=1;strokeColor=#00D4FF;align=center;verticalAlign=middle;fontFamily=Helvetica;fontSize=12;fontColor=default;fontStyle=1;fillColor=#AEFFFF;" vertex="1" parent="1">
          <mxGeometry x="1150" y="300" width="530" height="60" as="geometry" />
        </mxCell>
        <mxCell id="EwHZnWKr4dCBu-Lg2rmB-383" style="edgeStyle=orthogonalEdgeStyle;rounded=0;orthogonalLoop=1;jettySize=auto;html=1;exitX=0.5;exitY=0;exitDx=0;exitDy=0;entryX=0;entryY=0.5;entryDx=0;entryDy=0;fontFamily=Helvetica;fontSize=12;fontColor=default;fontStyle=1;" edge="1" parent="1" source="EwHZnWKr4dCBu-Lg2rmB-363" target="EwHZnWKr4dCBu-Lg2rmB-353">
          <mxGeometry relative="1" as="geometry">
            <Array as="points">
              <mxPoint x="425" y="-630" />
              <mxPoint x="140" y="-630" />
              <mxPoint x="140" y="-890" />
            </Array>
          </mxGeometry>
        </mxCell>
        <mxCell id="EwHZnWKr4dCBu-Lg2rmB-363" value="&lt;font size=&quot;3&quot;&gt;TRANSFER COMPLEX CASE&lt;/font&gt;" style="rounded=1;whiteSpace=wrap;html=1;strokeColor=#00D4FF;align=center;verticalAlign=middle;fontFamily=Helvetica;fontSize=12;fontColor=default;fontStyle=1;fillColor=#AEFFFF;" vertex="1" parent="1">
          <mxGeometry x="160" y="-560" width="530" height="60" as="geometry" />
        </mxCell>
        <mxCell id="EwHZnWKr4dCBu-Lg2rmB-385" style="edgeStyle=orthogonalEdgeStyle;rounded=0;orthogonalLoop=1;jettySize=auto;html=1;exitX=0.5;exitY=1;exitDx=0;exitDy=0;fontFamily=Helvetica;fontSize=12;fontColor=default;fontStyle=1;" edge="1" parent="1" source="EwHZnWKr4dCBu-Lg2rmB-364">
          <mxGeometry relative="1" as="geometry">
            <mxPoint x="1030.0000000000005" y="-329.99999999999955" as="targetPoint" />
          </mxGeometry>
        </mxCell>
        <mxCell id="EwHZnWKr4dCBu-Lg2rmB-364" value="&lt;font size=&quot;3&quot;&gt;REQUEST CASES&lt;br&gt;&lt;/font&gt;" style="rounded=1;whiteSpace=wrap;html=1;strokeColor=#00D4FF;align=center;verticalAlign=middle;fontFamily=Helvetica;fontSize=12;fontColor=default;fontStyle=1;fillColor=#AEFFFF;" vertex="1" parent="1">
          <mxGeometry x="1130" y="-560" width="530" height="60" as="geometry" />
        </mxCell>
        <mxCell id="EwHZnWKr4dCBu-Lg2rmB-389" style="edgeStyle=orthogonalEdgeStyle;rounded=0;orthogonalLoop=1;jettySize=auto;html=1;exitX=0.5;exitY=0;exitDx=0;exitDy=0;entryX=0;entryY=0.5;entryDx=0;entryDy=0;fontFamily=Helvetica;fontSize=12;fontColor=default;fontStyle=1;" edge="1" parent="1" source="EwHZnWKr4dCBu-Lg2rmB-366" target="EwHZnWKr4dCBu-Lg2rmB-256">
          <mxGeometry relative="1" as="geometry">
            <Array as="points">
              <mxPoint x="505" y="-1570" />
              <mxPoint x="110" y="-1570" />
              <mxPoint x="110" y="-1872" />
            </Array>
          </mxGeometry>
        </mxCell>
        <mxCell id="EwHZnWKr4dCBu-Lg2rmB-366" value="&lt;font size=&quot;3&quot;&gt;TRANSFER COMPLEX CASE&lt;/font&gt;" style="rounded=1;whiteSpace=wrap;html=1;strokeColor=#00D4FF;align=center;verticalAlign=middle;fontFamily=Helvetica;fontSize=12;fontColor=default;fontStyle=1;fillColor=#AEFFFF;" vertex="1" parent="1">
          <mxGeometry x="240" y="-1400" width="530" height="60" as="geometry" />
        </mxCell>
        <mxCell id="EwHZnWKr4dCBu-Lg2rmB-387" style="edgeStyle=orthogonalEdgeStyle;rounded=0;orthogonalLoop=1;jettySize=auto;html=1;exitX=0.5;exitY=1;exitDx=0;exitDy=0;entryX=0.75;entryY=0;entryDx=0;entryDy=0;fontFamily=Helvetica;fontSize=12;fontColor=default;fontStyle=1;" edge="1" parent="1" source="EwHZnWKr4dCBu-Lg2rmB-367" target="EwHZnWKr4dCBu-Lg2rmB-319">
          <mxGeometry relative="1" as="geometry">
            <Array as="points">
              <mxPoint x="1510" y="-1340" />
              <mxPoint x="1510" y="-1255" />
              <mxPoint x="1220" y="-1255" />
            </Array>
          </mxGeometry>
        </mxCell>
        <mxCell id="EwHZnWKr4dCBu-Lg2rmB-367" value="&lt;font size=&quot;3&quot;&gt;REQUEST CASES&lt;br&gt;&lt;/font&gt;" style="rounded=1;whiteSpace=wrap;html=1;strokeColor=#00D4FF;align=center;verticalAlign=middle;fontFamily=Helvetica;fontSize=12;fontColor=default;fontStyle=1;fillColor=#AEFFFF;" vertex="1" parent="1">
          <mxGeometry x="1220" y="-1400" width="530" height="60" as="geometry" />
        </mxCell>
        <mxCell id="EwHZnWKr4dCBu-Lg2rmB-252" value="ML MODEL" style="swimlane;whiteSpace=wrap;fillColor=#232BFF;strokeColor=#00D4FF;" vertex="1" parent="1">
          <mxGeometry x="140" y="-2128" width="280" height="478" as="geometry" />
        </mxCell>
        <mxCell id="EwHZnWKr4dCBu-Lg2rmB-293" value="INVESTIGATION OFFICER" style="swimlane;whiteSpace=wrap;startSize=23;strokeColor=#00DDFF;fillColor=#1900FF;" vertex="1" parent="1">
          <mxGeometry x="1390" y="-1170" width="290" height="490" as="geometry" />
        </mxCell>
        <mxCell id="EwHZnWKr4dCBu-Lg2rmB-294" value="" style="ellipse;shape=endState;fillColor=#FFFFFF;strokeColor=#ff0000" vertex="1" parent="EwHZnWKr4dCBu-Lg2rmB-293">
          <mxGeometry x="125" y="450" width="30" height="30" as="geometry" />
        </mxCell>
        <mxCell id="EwHZnWKr4dCBu-Lg2rmB-295" value="" style="endArrow=open;strokeColor=#FF0000;endFill=1;rounded=0;exitX=0.381;exitY=1.039;exitDx=0;exitDy=0;exitPerimeter=0;" edge="1" parent="EwHZnWKr4dCBu-Lg2rmB-293" source="EwHZnWKr4dCBu-Lg2rmB-311" target="EwHZnWKr4dCBu-Lg2rmB-294">
          <mxGeometry relative="1" as="geometry">
            <mxPoint x="145" y="420" as="sourcePoint" />
          </mxGeometry>
        </mxCell>
        <mxCell id="EwHZnWKr4dCBu-Lg2rmB-296" style="edgeStyle=orthogonalEdgeStyle;rounded=0;orthogonalLoop=1;jettySize=auto;html=1;exitX=0.5;exitY=1;exitDx=0;exitDy=0;fontFamily=Helvetica;fontSize=12;fontColor=default;fontStyle=1;strokeColor=#FF0000;" edge="1" parent="EwHZnWKr4dCBu-Lg2rmB-293" source="EwHZnWKr4dCBu-Lg2rmB-297">
          <mxGeometry relative="1" as="geometry">
            <mxPoint x="170" y="160" as="targetPoint" />
          </mxGeometry>
        </mxCell>
        <mxCell id="EwHZnWKr4dCBu-Lg2rmB-297" value="open case file" style="rounded=0;whiteSpace=wrap;html=1;strokeColor=default;align=center;verticalAlign=middle;fontFamily=Helvetica;fontSize=12;fontColor=default;fontStyle=1;fillColor=default;" vertex="1" parent="EwHZnWKr4dCBu-Lg2rmB-293">
          <mxGeometry x="110" y="60" width="120" height="60" as="geometry" />
        </mxCell>
        <mxCell id="EwHZnWKr4dCBu-Lg2rmB-298" value="&lt;div&gt;IO&lt;br&gt;&lt;/div&gt;&lt;div&gt;functionalities&lt;br&gt;&lt;/div&gt;" style="swimlane;horizontal=0;whiteSpace=wrap;html=1;strokeColor=#2200AB;align=center;verticalAlign=middle;fontFamily=Helvetica;fontSize=12;fontColor=default;fontStyle=1;fillColor=default;startSize=30;" vertex="1" parent="EwHZnWKr4dCBu-Lg2rmB-293">
          <mxGeometry x="50" y="160" width="210" height="220" as="geometry" />
        </mxCell>
        <mxCell id="EwHZnWKr4dCBu-Lg2rmB-299" value="share file for advice" style="text;html=1;align=center;verticalAlign=middle;resizable=0;points=[];autosize=1;strokeColor=none;fillColor=none;fontFamily=Helvetica;fontSize=12;fontColor=default;fontStyle=1;rotation=0;" vertex="1" parent="EwHZnWKr4dCBu-Lg2rmB-298">
          <mxGeometry x="45" y="40" width="130" height="30" as="geometry" />
        </mxCell>
        <mxCell id="EwHZnWKr4dCBu-Lg2rmB-300" value="" style="endArrow=none;html=1;rounded=0;fontFamily=Helvetica;fontSize=12;fontColor=default;fontStyle=1;" edge="1" parent="EwHZnWKr4dCBu-Lg2rmB-298">
          <mxGeometry width="50" height="50" relative="1" as="geometry">
            <mxPoint x="210" y="70" as="sourcePoint" />
            <mxPoint x="30" y="70" as="targetPoint" />
          </mxGeometry>
        </mxCell>
        <mxCell id="EwHZnWKr4dCBu-Lg2rmB-301" value="" style="endArrow=none;html=1;rounded=0;fontFamily=Helvetica;fontSize=12;fontColor=default;fontStyle=1;" edge="1" parent="EwHZnWKr4dCBu-Lg2rmB-298">
          <mxGeometry width="50" height="50" relative="1" as="geometry">
            <mxPoint x="210" y="40" as="sourcePoint" />
            <mxPoint x="30" y="40" as="targetPoint" />
          </mxGeometry>
        </mxCell>
        <mxCell id="EwHZnWKr4dCBu-Lg2rmB-302" value="manage the case file" style="text;html=1;align=center;verticalAlign=middle;resizable=0;points=[];autosize=1;strokeColor=none;fillColor=none;fontFamily=Helvetica;fontSize=12;fontColor=default;fontStyle=1;" vertex="1" parent="EwHZnWKr4dCBu-Lg2rmB-298">
          <mxGeometry x="45" y="10" width="130" height="30" as="geometry" />
        </mxCell>
        <mxCell id="EwHZnWKr4dCBu-Lg2rmB-303" value="" style="endArrow=none;html=1;rounded=0;fontFamily=Helvetica;fontSize=12;fontColor=default;fontStyle=1;" edge="1" parent="EwHZnWKr4dCBu-Lg2rmB-298">
          <mxGeometry width="50" height="50" relative="1" as="geometry">
            <mxPoint x="210" y="110" as="sourcePoint" />
            <mxPoint x="30" y="110" as="targetPoint" />
          </mxGeometry>
        </mxCell>
        <mxCell id="EwHZnWKr4dCBu-Lg2rmB-304" value="" style="endArrow=none;html=1;rounded=0;fontFamily=Helvetica;fontSize=12;fontColor=default;fontStyle=1;" edge="1" parent="EwHZnWKr4dCBu-Lg2rmB-298">
          <mxGeometry width="50" height="50" relative="1" as="geometry">
            <mxPoint x="210" y="133" as="sourcePoint" />
            <mxPoint x="30" y="133" as="targetPoint" />
          </mxGeometry>
        </mxCell>
        <mxCell id="EwHZnWKr4dCBu-Lg2rmB-305" value="re-open case file" style="text;html=1;align=center;verticalAlign=middle;resizable=0;points=[];autosize=1;strokeColor=none;fillColor=none;fontFamily=Helvetica;fontSize=12;fontColor=default;fontStyle=1;" vertex="1" parent="EwHZnWKr4dCBu-Lg2rmB-298">
          <mxGeometry x="50" y="70" width="110" height="30" as="geometry" />
        </mxCell>
        <mxCell id="EwHZnWKr4dCBu-Lg2rmB-306" value="" style="endArrow=none;html=1;rounded=0;fontFamily=Helvetica;fontSize=12;fontColor=default;fontStyle=1;" edge="1" parent="EwHZnWKr4dCBu-Lg2rmB-298">
          <mxGeometry width="50" height="50" relative="1" as="geometry">
            <mxPoint x="210" y="163" as="sourcePoint" />
            <mxPoint x="30" y="163" as="targetPoint" />
          </mxGeometry>
        </mxCell>
        <mxCell id="EwHZnWKr4dCBu-Lg2rmB-307" value="view assigned cases" style="text;html=1;align=center;verticalAlign=middle;resizable=0;points=[];autosize=1;strokeColor=none;fillColor=none;fontFamily=Helvetica;fontSize=12;fontColor=default;fontStyle=1;" vertex="1" parent="EwHZnWKr4dCBu-Lg2rmB-298">
          <mxGeometry x="40" y="103" width="130" height="30" as="geometry" />
        </mxCell>
        <mxCell id="EwHZnWKr4dCBu-Lg2rmB-308" value="reallocated the file" style="text;html=1;align=center;verticalAlign=middle;resizable=0;points=[];autosize=1;strokeColor=none;fillColor=none;fontFamily=Helvetica;fontSize=12;fontColor=default;fontStyle=1;" vertex="1" parent="EwHZnWKr4dCBu-Lg2rmB-298">
          <mxGeometry x="45" y="160" width="120" height="30" as="geometry" />
        </mxCell>
        <mxCell id="EwHZnWKr4dCBu-Lg2rmB-309" value="close case" style="text;html=1;align=center;verticalAlign=middle;resizable=0;points=[];autosize=1;strokeColor=none;fillColor=none;fontFamily=Helvetica;fontSize=12;fontColor=default;fontStyle=1;" vertex="1" parent="EwHZnWKr4dCBu-Lg2rmB-298">
          <mxGeometry x="50" y="133" width="80" height="30" as="geometry" />
        </mxCell>
        <mxCell id="EwHZnWKr4dCBu-Lg2rmB-310" value="" style="endArrow=none;html=1;rounded=0;fontFamily=Helvetica;fontSize=12;fontColor=default;fontStyle=1;" edge="1" parent="EwHZnWKr4dCBu-Lg2rmB-298">
          <mxGeometry width="50" height="50" relative="1" as="geometry">
            <mxPoint x="210" y="190" as="sourcePoint" />
            <mxPoint x="30" y="190" as="targetPoint" />
          </mxGeometry>
        </mxCell>
        <mxCell id="EwHZnWKr4dCBu-Lg2rmB-311" value="retrieve crime history files" style="text;html=1;align=center;verticalAlign=middle;resizable=0;points=[];autosize=1;strokeColor=none;fillColor=none;fontFamily=Helvetica;fontSize=12;fontColor=default;fontStyle=1;" vertex="1" parent="EwHZnWKr4dCBu-Lg2rmB-298">
          <mxGeometry x="30" y="190" width="160" height="30" as="geometry" />
        </mxCell>
        <mxCell id="EwHZnWKr4dCBu-Lg2rmB-368" style="edgeStyle=orthogonalEdgeStyle;rounded=0;orthogonalLoop=1;jettySize=auto;html=1;exitX=1;exitY=0.5;exitDx=0;exitDy=0;entryX=0;entryY=0.5;entryDx=0;entryDy=0;fontFamily=Helvetica;fontSize=12;fontColor=default;fontStyle=1;strokeColor=#FF0000;" edge="1" parent="1" source="EwHZnWKr4dCBu-Lg2rmB-321" target="EwHZnWKr4dCBu-Lg2rmB-297">
          <mxGeometry relative="1" as="geometry" />
        </mxCell>
        <mxCell id="EwHZnWKr4dCBu-Lg2rmB-393" style="edgeStyle=orthogonalEdgeStyle;rounded=0;orthogonalLoop=1;jettySize=auto;html=1;exitX=0.5;exitY=0;exitDx=0;exitDy=0;entryX=0;entryY=0.5;entryDx=0;entryDy=0;fontFamily=Helvetica;fontSize=12;fontColor=default;fontStyle=1;" edge="1" parent="1" source="EwHZnWKr4dCBu-Lg2rmB-369" target="EwHZnWKr4dCBu-Lg2rmB-196">
          <mxGeometry relative="1" as="geometry">
            <Array as="points">
              <mxPoint x="415" y="-2480" />
              <mxPoint x="250" y="-2480" />
              <mxPoint x="250" y="-2928" />
            </Array>
          </mxGeometry>
        </mxCell>
        <mxCell id="EwHZnWKr4dCBu-Lg2rmB-369" value="&lt;font size=&quot;3&quot;&gt;TRANSFER COMPLEX CASE&lt;/font&gt;" style="rounded=1;whiteSpace=wrap;html=1;strokeColor=#00D4FF;align=center;verticalAlign=middle;fontFamily=Helvetica;fontSize=12;fontColor=default;fontStyle=1;fillColor=#AEFFFF;" vertex="1" parent="1">
          <mxGeometry x="150" y="-2360" width="530" height="60" as="geometry" />
        </mxCell>
        <mxCell id="EwHZnWKr4dCBu-Lg2rmB-391" style="edgeStyle=orthogonalEdgeStyle;rounded=0;orthogonalLoop=1;jettySize=auto;html=1;exitX=0.5;exitY=1;exitDx=0;exitDy=0;entryX=0.75;entryY=0;entryDx=0;entryDy=0;fontFamily=Helvetica;fontSize=12;fontColor=default;fontStyle=1;" edge="1" parent="1" source="EwHZnWKr4dCBu-Lg2rmB-370" target="EwHZnWKr4dCBu-Lg2rmB-259">
          <mxGeometry relative="1" as="geometry" />
        </mxCell>
        <mxCell id="EwHZnWKr4dCBu-Lg2rmB-370" value="&lt;font size=&quot;3&quot;&gt;REQUEST CASES&lt;br&gt;&lt;/font&gt;" style="rounded=1;whiteSpace=wrap;html=1;strokeColor=#00D4FF;align=center;verticalAlign=middle;fontFamily=Helvetica;fontSize=12;fontColor=default;fontStyle=1;fillColor=#AEFFFF;" vertex="1" parent="1">
          <mxGeometry x="1130" y="-2360" width="530" height="60" as="geometry" />
        </mxCell>
        <mxCell id="EwHZnWKr4dCBu-Lg2rmB-371" style="edgeStyle=orthogonalEdgeStyle;rounded=0;orthogonalLoop=1;jettySize=auto;html=1;fontFamily=Helvetica;fontSize=12;fontColor=default;fontStyle=1;" edge="1" parent="1" source="3" target="EwHZnWKr4dCBu-Lg2rmB-360">
          <mxGeometry relative="1" as="geometry">
            <Array as="points">
              <mxPoint x="1221" y="460" />
              <mxPoint x="435" y="460" />
            </Array>
          </mxGeometry>
        </mxCell>
        <mxCell id="EwHZnWKr4dCBu-Lg2rmB-375" style="edgeStyle=orthogonalEdgeStyle;rounded=0;orthogonalLoop=1;jettySize=auto;html=1;exitX=0.5;exitY=1;exitDx=0;exitDy=0;entryX=0.475;entryY=-0.069;entryDx=0;entryDy=0;entryPerimeter=0;fontFamily=Helvetica;fontSize=12;fontColor=default;fontStyle=1;" edge="1" parent="1" source="EwHZnWKr4dCBu-Lg2rmB-135" target="EwHZnWKr4dCBu-Lg2rmB-361">
          <mxGeometry relative="1" as="geometry" />
        </mxCell>
        <mxCell id="EwHZnWKr4dCBu-Lg2rmB-382" style="edgeStyle=orthogonalEdgeStyle;rounded=0;orthogonalLoop=1;jettySize=auto;html=1;fontFamily=Helvetica;fontSize=12;fontColor=default;fontStyle=1;" edge="1" parent="1" source="EwHZnWKr4dCBu-Lg2rmB-135" target="EwHZnWKr4dCBu-Lg2rmB-363">
          <mxGeometry relative="1" as="geometry">
            <Array as="points">
              <mxPoint x="970" y="-440" />
              <mxPoint x="425" y="-440" />
            </Array>
          </mxGeometry>
        </mxCell>
        <mxCell id="EwHZnWKr4dCBu-Lg2rmB-386" style="edgeStyle=orthogonalEdgeStyle;rounded=0;orthogonalLoop=1;jettySize=auto;html=1;exitX=0.5;exitY=1;exitDx=0;exitDy=0;entryX=0.547;entryY=-0.044;entryDx=0;entryDy=0;entryPerimeter=0;fontFamily=Helvetica;fontSize=12;fontColor=default;fontStyle=1;" edge="1" parent="1" source="EwHZnWKr4dCBu-Lg2rmB-259" target="EwHZnWKr4dCBu-Lg2rmB-367">
          <mxGeometry relative="1" as="geometry" />
        </mxCell>
        <mxCell id="EwHZnWKr4dCBu-Lg2rmB-388" style="edgeStyle=orthogonalEdgeStyle;rounded=0;orthogonalLoop=1;jettySize=auto;html=1;exitX=0.5;exitY=0;exitDx=0;exitDy=0;entryX=0.5;entryY=1;entryDx=0;entryDy=0;fontFamily=Helvetica;fontSize=12;fontColor=default;fontStyle=1;" edge="1" parent="1" source="EwHZnWKr4dCBu-Lg2rmB-319" target="EwHZnWKr4dCBu-Lg2rmB-366">
          <mxGeometry relative="1" as="geometry" />
        </mxCell>
        <mxCell id="EwHZnWKr4dCBu-Lg2rmB-390" style="edgeStyle=orthogonalEdgeStyle;rounded=0;orthogonalLoop=1;jettySize=auto;html=1;exitX=0.5;exitY=0;exitDx=0;exitDy=0;entryX=0.5;entryY=1;entryDx=0;entryDy=0;fontFamily=Helvetica;fontSize=12;fontColor=default;fontStyle=1;" edge="1" parent="1" source="EwHZnWKr4dCBu-Lg2rmB-259" target="EwHZnWKr4dCBu-Lg2rmB-369">
          <mxGeometry relative="1" as="geometry" />
        </mxCell>
        <mxCell id="EwHZnWKr4dCBu-Lg2rmB-392" style="edgeStyle=orthogonalEdgeStyle;rounded=0;orthogonalLoop=1;jettySize=auto;html=1;exitX=0.5;exitY=1;exitDx=0;exitDy=0;entryX=0.568;entryY=0.033;entryDx=0;entryDy=0;entryPerimeter=0;fontFamily=Helvetica;fontSize=12;fontColor=default;fontStyle=1;" edge="1" parent="1" source="EwHZnWKr4dCBu-Lg2rmB-199" target="EwHZnWKr4dCBu-Lg2rmB-370">
          <mxGeometry relative="1" as="geometry" />
        </mxCell>
        <mxCell id="EwHZnWKr4dCBu-Lg2rmB-394" value="&lt;font style=&quot;font-size: 24px;&quot;&gt;REPORT&lt;/font&gt;" style="rounded=1;whiteSpace=wrap;html=1;strokeColor=#00D4FF;align=center;verticalAlign=middle;fontFamily=Helvetica;fontSize=12;fontColor=default;fontStyle=1;fillColor=#FFBE69;" vertex="1" parent="1">
          <mxGeometry x="1810" y="798" width="350" height="108" as="geometry" />
        </mxCell>
        <mxCell id="EwHZnWKr4dCBu-Lg2rmB-409" style="edgeStyle=orthogonalEdgeStyle;rounded=0;orthogonalLoop=1;jettySize=auto;html=1;exitX=0;exitY=0.5;exitDx=0;exitDy=0;fontFamily=Helvetica;fontSize=12;fontColor=default;fontStyle=1;" edge="1" parent="1" source="EwHZnWKr4dCBu-Lg2rmB-397">
          <mxGeometry relative="1" as="geometry">
            <mxPoint x="1640" y="-2936.4615384615386" as="targetPoint" />
          </mxGeometry>
        </mxCell>
        <mxCell id="EwHZnWKr4dCBu-Lg2rmB-397" value="&lt;font style=&quot;font-size: 24px;&quot;&gt;REPORT&lt;/font&gt;" style="rounded=1;whiteSpace=wrap;html=1;strokeColor=#00D4FF;align=center;verticalAlign=middle;fontFamily=Helvetica;fontSize=12;fontColor=default;fontStyle=1;fillColor=#FFBE69;" vertex="1" parent="1">
          <mxGeometry x="1830" y="-2990" width="350" height="108" as="geometry" />
        </mxCell>
        <mxCell id="EwHZnWKr4dCBu-Lg2rmB-410" style="edgeStyle=orthogonalEdgeStyle;rounded=0;orthogonalLoop=1;jettySize=auto;html=1;exitX=0;exitY=0.75;exitDx=0;exitDy=0;fontFamily=Helvetica;fontSize=12;fontColor=default;fontStyle=1;" edge="1" parent="1" source="EwHZnWKr4dCBu-Lg2rmB-398">
          <mxGeometry relative="1" as="geometry">
            <mxPoint x="1670" y="-1868.769230769231" as="targetPoint" />
          </mxGeometry>
        </mxCell>
        <mxCell id="EwHZnWKr4dCBu-Lg2rmB-420" style="edgeStyle=orthogonalEdgeStyle;rounded=0;orthogonalLoop=1;jettySize=auto;html=1;exitX=0.5;exitY=0;exitDx=0;exitDy=0;fontFamily=Helvetica;fontSize=12;fontColor=default;fontStyle=1;" edge="1" parent="1" source="EwHZnWKr4dCBu-Lg2rmB-398">
          <mxGeometry relative="1" as="geometry">
            <mxPoint x="2005.0769230769229" y="-2884.6153846153848" as="targetPoint" />
          </mxGeometry>
        </mxCell>
        <mxCell id="EwHZnWKr4dCBu-Lg2rmB-398" value="&lt;font style=&quot;font-size: 24px;&quot;&gt;REPORT&lt;/font&gt;" style="rounded=1;whiteSpace=wrap;html=1;strokeColor=#00D4FF;align=center;verticalAlign=middle;fontFamily=Helvetica;fontSize=12;fontColor=default;fontStyle=1;fillColor=#FFBE69;" vertex="1" parent="1">
          <mxGeometry x="1830" y="-1950" width="350" height="108" as="geometry" />
        </mxCell>
        <mxCell id="EwHZnWKr4dCBu-Lg2rmB-411" style="edgeStyle=orthogonalEdgeStyle;rounded=0;orthogonalLoop=1;jettySize=auto;html=1;exitX=0;exitY=0.25;exitDx=0;exitDy=0;fontFamily=Helvetica;fontSize=12;fontColor=default;fontStyle=1;" edge="1" parent="1" source="EwHZnWKr4dCBu-Lg2rmB-399">
          <mxGeometry relative="1" as="geometry">
            <mxPoint x="1680" y="-963" as="targetPoint" />
          </mxGeometry>
        </mxCell>
        <mxCell id="EwHZnWKr4dCBu-Lg2rmB-419" style="edgeStyle=orthogonalEdgeStyle;rounded=0;orthogonalLoop=1;jettySize=auto;html=1;exitX=0.5;exitY=0;exitDx=0;exitDy=0;fontFamily=Helvetica;fontSize=12;fontColor=default;fontStyle=1;" edge="1" parent="1" source="EwHZnWKr4dCBu-Lg2rmB-399">
          <mxGeometry relative="1" as="geometry">
            <mxPoint x="1985" y="-1840" as="targetPoint" />
          </mxGeometry>
        </mxCell>
        <mxCell id="EwHZnWKr4dCBu-Lg2rmB-399" value="&lt;font style=&quot;font-size: 24px;&quot;&gt;REPORT&lt;/font&gt;" style="rounded=1;whiteSpace=wrap;html=1;strokeColor=#00D4FF;align=center;verticalAlign=middle;fontFamily=Helvetica;fontSize=12;fontColor=default;fontStyle=1;fillColor=#FFBE69;" vertex="1" parent="1">
          <mxGeometry x="1810" y="-990" width="350" height="108" as="geometry" />
        </mxCell>
        <mxCell id="EwHZnWKr4dCBu-Lg2rmB-416" style="edgeStyle=orthogonalEdgeStyle;rounded=0;orthogonalLoop=1;jettySize=auto;html=1;exitX=0;exitY=0.75;exitDx=0;exitDy=0;fontFamily=Helvetica;fontSize=12;fontColor=default;fontStyle=1;" edge="1" parent="1" source="EwHZnWKr4dCBu-Lg2rmB-400">
          <mxGeometry relative="1" as="geometry">
            <mxPoint x="1680" y="-139.5384615384619" as="targetPoint" />
          </mxGeometry>
        </mxCell>
        <mxCell id="EwHZnWKr4dCBu-Lg2rmB-400" value="&lt;font style=&quot;font-size: 24px;&quot;&gt;REPORT&lt;/font&gt;" style="rounded=1;whiteSpace=wrap;html=1;strokeColor=#00D4FF;align=center;verticalAlign=middle;fontFamily=Helvetica;fontSize=12;fontColor=default;fontStyle=1;fillColor=#FFBE69;" vertex="1" parent="1">
          <mxGeometry x="1820" y="-220" width="350" height="108" as="geometry" />
        </mxCell>
        <mxCell id="EwHZnWKr4dCBu-Lg2rmB-401" style="edgeStyle=orthogonalEdgeStyle;rounded=0;orthogonalLoop=1;jettySize=auto;html=1;exitX=0.5;exitY=0;exitDx=0;exitDy=0;fontFamily=Helvetica;fontSize=12;fontColor=default;fontStyle=1;" edge="1" parent="1" source="EwHZnWKr4dCBu-Lg2rmB-394">
          <mxGeometry relative="1" as="geometry">
            <mxPoint x="1990" y="-110" as="targetPoint" />
            <Array as="points">
              <mxPoint x="1990" y="802" />
            </Array>
          </mxGeometry>
        </mxCell>
        <mxCell id="EwHZnWKr4dCBu-Lg2rmB-403" style="edgeStyle=orthogonalEdgeStyle;rounded=0;orthogonalLoop=1;jettySize=auto;html=1;exitX=0.5;exitY=0;exitDx=0;exitDy=0;fontFamily=Helvetica;fontSize=12;fontColor=default;fontStyle=1;" edge="1" parent="1" source="EwHZnWKr4dCBu-Lg2rmB-400">
          <mxGeometry relative="1" as="geometry">
            <mxPoint x="1994" y="-880" as="targetPoint" />
          </mxGeometry>
        </mxCell>
        <mxCell id="EwHZnWKr4dCBu-Lg2rmB-404" style="edgeStyle=orthogonalEdgeStyle;rounded=0;orthogonalLoop=1;jettySize=auto;html=1;fontFamily=Helvetica;fontSize=12;fontColor=default;fontStyle=1;entryX=0;entryY=0.5;entryDx=0;entryDy=0;" edge="1" parent="1" target="EwHZnWKr4dCBu-Lg2rmB-394">
          <mxGeometry relative="1" as="geometry">
            <mxPoint x="1810" y="870" as="targetPoint" />
            <mxPoint x="1690" y="856" as="sourcePoint" />
            <Array as="points">
              <mxPoint x="1810" y="856" />
            </Array>
          </mxGeometry>
        </mxCell>
        <mxCell id="EwHZnWKr4dCBu-Lg2rmB-407" style="edgeStyle=orthogonalEdgeStyle;rounded=0;orthogonalLoop=1;jettySize=auto;html=1;exitX=1;exitY=0.5;exitDx=0;exitDy=0;entryX=0;entryY=0.5;entryDx=0;entryDy=0;fontFamily=Helvetica;fontSize=12;fontColor=default;fontStyle=1;" edge="1" parent="1" source="EwHZnWKr4dCBu-Lg2rmB-233" target="EwHZnWKr4dCBu-Lg2rmB-398">
          <mxGeometry relative="1" as="geometry" />
        </mxCell>
        <mxCell id="EwHZnWKr4dCBu-Lg2rmB-412" style="edgeStyle=orthogonalEdgeStyle;rounded=0;orthogonalLoop=1;jettySize=auto;html=1;entryX=-0.001;entryY=0.61;entryDx=0;entryDy=0;entryPerimeter=0;fontFamily=Helvetica;fontSize=12;fontColor=default;fontStyle=1;" edge="1" parent="1" source="EwHZnWKr4dCBu-Lg2rmB-293" target="EwHZnWKr4dCBu-Lg2rmB-399">
          <mxGeometry relative="1" as="geometry" />
        </mxCell>
        <mxCell id="EwHZnWKr4dCBu-Lg2rmB-415" style="edgeStyle=orthogonalEdgeStyle;rounded=0;orthogonalLoop=1;jettySize=auto;html=1;exitX=1;exitY=0.25;exitDx=0;exitDy=0;entryX=0.006;entryY=0.118;entryDx=0;entryDy=0;entryPerimeter=0;fontFamily=Helvetica;fontSize=12;fontColor=default;fontStyle=1;" edge="1" parent="1" source="EwHZnWKr4dCBu-Lg2rmB-109" target="EwHZnWKr4dCBu-Lg2rmB-400">
          <mxGeometry relative="1" as="geometry" />
        </mxCell>
        <mxCell id="EwHZnWKr4dCBu-Lg2rmB-417" style="edgeStyle=orthogonalEdgeStyle;rounded=0;orthogonalLoop=1;jettySize=auto;html=1;entryX=0;entryY=0.25;entryDx=0;entryDy=0;fontFamily=Helvetica;fontSize=12;fontColor=default;fontStyle=1;" edge="1" parent="1" target="EwHZnWKr4dCBu-Lg2rmB-397">
          <mxGeometry relative="1" as="geometry">
            <mxPoint x="1638" y="-2963" as="sourcePoint" />
            <Array as="points">
              <mxPoint x="1638" y="-2963" />
            </Array>
          </mxGeometry>
        </mxCell>
      </root>
    </mxGraphModel>
  </diagram>
</mxfile>
